<svg width="16" height="16" viewBox="0 0 16 16" fill="none" xmlns="http://www.w3.org/2000/svg">
<path d="M3 13.5C2.17157 13.5 1.5 12.8284 1.5 12V4C1.5 3.17157 2.17157 2.5 3 2.5H5.67157C6.0694 2.5 6.45093 2.65803 6.73223 2.93934L7.56066 3.76777C8.0295 4.23661 8.66539 4.5 9.32843 4.5H13C13.8284 4.5 14.5 5.17157 14.5 6V12C14.5 12.8284 13.8284 13.5 13 13.5H3Z" stroke="#FF9900"/>
<path d="M6.69082 8.50911C6.69082 8.58295 6.6988 8.64281 6.71277 8.68671C6.72874 8.73062 6.74869 8.77851 6.77663 8.83039C6.78661 8.84636 6.7906 8.86232 6.7906 8.87629C6.7906 8.89625 6.77863 8.9162 6.75268 8.93616L6.62696 9.01997C6.609 9.03194 6.59104 9.03793 6.57508 9.03793C6.55512 9.03793 6.53517 9.02795 6.51521 9.00999C6.48728 8.98006 6.46333 8.94813 6.44337 8.9162C6.42342 8.88228 6.40346 8.84436 6.38151 8.79846C6.22586 8.98205 6.0303 9.07385 5.79482 9.07385C5.6272 9.07385 5.4935 9.02596 5.39572 8.93017C5.29794 8.83438 5.24805 8.70667 5.24805 8.54703C5.24805 8.37741 5.30791 8.23971 5.42964 8.13595C5.55137 8.03218 5.71301 7.98029 5.91855 7.98029C5.9864 7.98029 6.05624 7.98628 6.13007 7.99626C6.20391 8.00624 6.27974 8.0222 6.35956 8.04016V7.89449C6.35956 7.74282 6.32763 7.63706 6.26577 7.5752C6.20191 7.51334 6.09416 7.4834 5.9405 7.4834C5.87065 7.4834 5.79882 7.49139 5.72498 7.50935C5.65115 7.52731 5.57931 7.54926 5.50946 7.57719C5.47753 7.59116 5.45359 7.59915 5.43962 7.60314C5.42565 7.60713 5.41567 7.60912 5.40769 7.60912C5.37975 7.60912 5.36578 7.58917 5.36578 7.54726V7.44948C5.36578 7.41755 5.36977 7.3936 5.37975 7.37964C5.38973 7.36567 5.40769 7.3517 5.43563 7.33773C5.50547 7.30181 5.58928 7.27188 5.68707 7.24793C5.78485 7.22199 5.88861 7.21002 5.99837 7.21002C6.23584 7.21002 6.40945 7.26389 6.5212 7.37165C6.63096 7.47941 6.68683 7.64305 6.68683 7.86256V8.50911H6.69082ZM5.88063 8.81243C5.94649 8.81243 6.01433 8.80046 6.08617 8.77651C6.15801 8.75257 6.22187 8.70866 6.27575 8.6488C6.30768 8.61088 6.33162 8.56898 6.3436 8.52108C6.35557 8.47319 6.36355 8.41532 6.36355 8.34747V8.26366C6.30568 8.24969 6.24382 8.23772 6.17996 8.22974C6.11611 8.22175 6.05424 8.21776 5.99238 8.21776C5.85868 8.21776 5.7609 8.2437 5.69505 8.29758C5.62919 8.35146 5.59727 8.42729 5.59727 8.52707C5.59727 8.62086 5.62121 8.69071 5.6711 8.7386C5.71899 8.78849 5.78884 8.81243 5.88063 8.81243ZM7.48305 9.02795C7.44713 9.02795 7.42318 9.02196 7.40722 9.008C7.39126 8.99602 7.37729 8.96808 7.36531 8.93017L6.89636 7.38762C6.88439 7.34771 6.8784 7.32177 6.8784 7.3078C6.8784 7.27587 6.89437 7.25791 6.92629 7.25791H7.12186C7.15977 7.25791 7.18572 7.26389 7.19968 7.27786C7.21565 7.28984 7.22762 7.31777 7.23959 7.35569L7.57485 8.67674L7.88615 7.35569C7.89613 7.31578 7.9081 7.28984 7.92406 7.27786C7.94003 7.26589 7.96797 7.25791 8.00389 7.25791H8.16353C8.20144 7.25791 8.22739 7.26389 8.24335 7.27786C8.25931 7.28984 8.27328 7.31777 8.28127 7.35569L8.59656 8.6927L8.94179 7.35569C8.95376 7.31578 8.96773 7.28984 8.9817 7.27786C8.99766 7.26589 9.02361 7.25791 9.05953 7.25791H9.24511C9.27704 7.25791 9.295 7.27387 9.295 7.3078C9.295 7.31777 9.293 7.32775 9.29101 7.33973C9.28901 7.3517 9.28502 7.36766 9.27704 7.38961L8.79611 8.93217C8.78414 8.97208 8.77017 8.99802 8.75421 9.00999C8.73824 9.02196 8.7123 9.02995 8.67838 9.02995H8.50676C8.46885 9.02995 8.4429 9.02396 8.42694 9.00999C8.41098 8.99602 8.39701 8.97008 8.38902 8.93017L8.07972 7.64305L7.7724 8.92817C7.76243 8.96808 7.75045 8.99403 7.73449 9.008C7.71852 9.02196 7.69059 9.02795 7.65467 9.02795H7.48305ZM10.0473 9.08183C9.94355 9.08183 9.83978 9.06986 9.74 9.04591C9.64023 9.02196 9.5624 8.99602 9.51052 8.96609C9.47859 8.94813 9.45664 8.92817 9.44866 8.91021C9.44067 8.89225 9.43668 8.8723 9.43668 8.85434V8.75257C9.43668 8.71066 9.45265 8.69071 9.48258 8.69071C9.49455 8.69071 9.50653 8.6927 9.5185 8.69669C9.53047 8.70068 9.54843 8.70866 9.56839 8.71665C9.63624 8.74658 9.71007 8.77053 9.7879 8.78649C9.86772 8.80246 9.94554 8.81044 10.0254 8.81044C10.1511 8.81044 10.2489 8.78849 10.3167 8.74458C10.3846 8.70068 10.4205 8.63683 10.4205 8.55501C10.4205 8.49913 10.4025 8.45324 10.3666 8.41532C10.3307 8.37741 10.2628 8.34348 10.1651 8.31155L9.8757 8.22175C9.73003 8.17586 9.62227 8.10801 9.55642 8.01821C9.49056 7.9304 9.45664 7.83262 9.45664 7.72886C9.45664 7.64504 9.4746 7.57121 9.51052 7.50735C9.54644 7.44349 9.59433 7.38762 9.6542 7.34372C9.71406 7.29782 9.78191 7.26389 9.86173 7.23995C9.94155 7.216 10.0254 7.20602 10.1132 7.20602C10.1571 7.20602 10.203 7.20802 10.2469 7.21401C10.2928 7.21999 10.3347 7.22798 10.3766 7.23596C10.4165 7.24593 10.4544 7.25591 10.4903 7.26789C10.5262 7.27986 10.5542 7.29183 10.5741 7.30381C10.6021 7.31977 10.622 7.33573 10.634 7.35369C10.646 7.36966 10.652 7.39161 10.652 7.41955V7.51334C10.652 7.55524 10.636 7.57719 10.6061 7.57719C10.5901 7.57719 10.5642 7.56921 10.5302 7.55325C10.4165 7.50136 10.2888 7.47542 10.1471 7.47542C10.0333 7.47542 9.94355 7.49338 9.88169 7.5313C9.81983 7.56921 9.7879 7.62708 9.7879 7.7089C9.7879 7.76477 9.80785 7.81267 9.84776 7.85058C9.88767 7.8885 9.96151 7.92641 10.0673 7.96034L10.3506 8.05014C10.4943 8.09603 10.5981 8.15989 10.6599 8.24171C10.7218 8.32353 10.7517 8.41732 10.7517 8.52108C10.7517 8.60689 10.7338 8.68472 10.6999 8.75257C10.6639 8.82042 10.616 8.88028 10.5542 8.92817C10.4923 8.97806 10.4185 9.01398 10.3327 9.03992C10.2429 9.06786 10.1491 9.08183 10.0473 9.08183Z" fill="white"/>
<path fill-rule="evenodd" clip-rule="evenodd" d="M10.4245 10.0517C9.76798 10.5366 8.81411 10.794 7.99395 10.794C6.84452 10.794 5.80883 10.369 5.02658 9.66253C4.96472 9.60666 5.02059 9.53082 5.09443 9.57473C5.94054 10.0656 6.9842 10.363 8.06379 10.363C8.79216 10.363 9.59237 10.2113 10.3287 9.9C10.4385 9.85011 10.5323 9.97184 10.4245 10.0517Z" fill="#FF9900"/>
<path fill-rule="evenodd" clip-rule="evenodd" d="M10.6974 9.74036C10.6136 9.6326 10.1427 9.68848 9.92915 9.71442C9.86529 9.7224 9.85531 9.66653 9.91318 9.62462C10.2883 9.36121 10.905 9.43704 10.9768 9.52484C11.0486 9.61464 10.9568 10.2313 10.6056 10.5266C10.5518 10.5725 10.4999 10.5486 10.5238 10.4887C10.6036 10.2911 10.7812 9.84612 10.6974 9.74036Z" fill="#FF9900"/>
</svg>
