<svg width="16" height="16" viewBox="0 0 16 16" fill="none" xmlns="http://www.w3.org/2000/svg">
<path d="M3 13.5C2.17157 13.5 1.5 12.8284 1.5 12V4C1.5 3.17157 2.17157 2.5 3 2.5H5.67157C6.0694 2.5 6.45093 2.65803 6.73223 2.93934L7.56066 3.76777C8.0295 4.23661 8.66539 4.5 9.32843 4.5H13C13.8284 4.5 14.5 5.17157 14.5 6V12C14.5 12.8284 13.8284 13.5 13 13.5H3Z" stroke="black"/>
<g clip-path="url(#clip0_64_1244)">
<mask id="mask0_64_1244" style="mask-type:alpha" maskUnits="userSpaceOnUse" x="5" y="6" width="6" height="6">
<path d="M8 12C9.65685 12 11 10.6569 11 9C11 7.34315 9.65685 6 8 6C6.34315 6 5 7.34315 5 9C5 10.6569 6.34315 12 8 12Z" fill="black"/>
</mask>
<g mask="url(#mask0_64_1244)">
<path d="M8 12C9.65685 12 11 10.6569 11 9C11 7.34315 9.65685 6 8 6C6.34315 6 5 7.34315 5 9C5 10.6569 6.34315 12 8 12Z" fill="black"/>
<path d="M9.9834 11.2507L7.30454 7.79999H6.7998V10.199H7.20359V8.31277L9.66644 11.4948C9.77757 11.4205 9.88344 11.3388 9.9834 11.2507Z" fill="url(#paint0_linear_64_1244)"/>
<path d="M9.23301 7.79999H8.83301V10.2H9.23301V7.79999Z" fill="url(#paint1_linear_64_1244)"/>
</g>
</g>
<defs>
<linearGradient id="paint0_linear_64_1244" x1="8.63314" y1="9.88332" x2="9.81647" y2="11.35" gradientUnits="userSpaceOnUse">
<stop stop-color="white"/>
<stop offset="1" stop-color="white" stop-opacity="0"/>
</linearGradient>
<linearGradient id="paint1_linear_64_1244" x1="9.03301" y1="7.79999" x2="9.02631" y2="9.56249" gradientUnits="userSpaceOnUse">
<stop stop-color="white"/>
<stop offset="1" stop-color="white" stop-opacity="0"/>
</linearGradient>
<clipPath id="clip0_64_1244">
<rect width="6" height="6" fill="white" transform="translate(5 6)"/>
</clipPath>
</defs>
</svg>
