<svg width="16" height="16" viewBox="0 0 16 16" fill="none" xmlns="http://www.w3.org/2000/svg">
<path d="M3 13.5C2.17157 13.5 1.5 12.8284 1.5 12V4C1.5 3.17157 2.17157 2.5 3 2.5H5.67157C6.0694 2.5 6.45093 2.65803 6.73223 2.93934L7.56066 3.76777C8.0295 4.23661 8.66539 4.5 9.32843 4.5H13C13.8284 4.5 14.5 5.17157 14.5 6V12C14.5 12.8284 13.8284 13.5 13 13.5H3Z" stroke="#E2574C"/>
<path d="M6.97766 9.29147C6.75368 9.35503 6.60674 9.46648 6.50994 9.57785C6.60265 9.49671 6.72684 9.42225 6.89437 9.37476C7.06571 9.3262 7.21189 9.32654 7.33268 9.34985V9.2554C7.22964 9.24598 7.11151 9.25349 6.97766 9.29147ZM6.4997 8.49748L5.66789 8.71663C5.66789 8.71663 5.68305 8.73804 5.71112 8.76662L6.41639 8.58077C6.41639 8.58077 6.4064 8.70955 6.31961 8.82476C6.48378 8.70055 6.4997 8.49748 6.4997 8.49748ZM7.19599 10.4524C6.0254 10.7677 5.40608 9.41109 5.21858 8.70696C5.13195 8.38195 5.09413 8.13579 5.08405 7.97694C5.08297 7.96044 5.08347 7.94654 5.08463 7.9338C5.02391 7.93747 4.99484 7.96903 5.00075 8.06025C5.01083 8.21901 5.04865 8.46515 5.13528 8.79027C5.3227 9.49429 5.9421 10.8509 7.1127 10.5356C7.36749 10.467 7.55891 10.3419 7.70261 10.1823C7.57016 10.302 7.40439 10.3962 7.19599 10.4524ZM7.41597 7.66724V7.75055H7.87512C7.8657 7.72105 7.85621 7.69447 7.84679 7.66724H7.41597Z" fill="#2D4552"/>
<path d="M7.9778 8.35334C8.18429 8.41199 8.2935 8.55676 8.35122 8.68488L8.58146 8.75027C8.58146 8.75027 8.55005 8.30188 8.14447 8.18667C7.76505 8.07887 7.53156 8.39749 7.50316 8.43872C7.61354 8.36009 7.77471 8.29571 7.9778 8.35334ZM9.81052 8.68695C9.43075 8.57866 9.19736 8.89794 9.16937 8.9386C9.27983 8.86005 9.44092 8.79565 9.64392 8.85355C9.85008 8.91228 9.9592 9.05688 10.0171 9.18508L10.2477 9.25072C10.2477 9.25072 10.2158 8.80224 9.81052 8.68695ZM9.58178 9.8692L7.66652 9.33377C7.66652 9.33377 7.68725 9.43889 7.76681 9.575L9.37938 10.0258C9.51214 9.949 9.58178 9.8692 9.58178 9.8692ZM8.25392 11.0217C6.7374 10.6151 6.92074 8.68288 7.16614 7.76726C7.26717 7.38992 7.37105 7.10946 7.45719 6.92146C7.40579 6.91088 7.36323 6.93795 7.32116 7.0235C7.2297 7.209 7.11274 7.51104 6.99955 7.93386C6.75423 8.84946 6.57089 10.7816 8.08734 11.1882C8.80212 11.3797 9.35895 11.0887 9.77404 10.6316C9.38004 10.9885 8.877 11.1886 8.25392 11.0217Z" fill="#2D4552"/>
<path d="M7.41559 9.99958V9.60967L6.33222 9.91687C6.33222 9.91687 6.41227 9.45174 6.97728 9.29146C7.14862 9.2429 7.29482 9.24323 7.41559 9.26655V7.66723H7.95803C7.89897 7.48472 7.84183 7.34421 7.79384 7.24658C7.71446 7.08498 7.63308 7.19211 7.44833 7.34663C7.31822 7.45533 6.98936 7.68724 6.49449 7.82059C5.99961 7.95402 5.59953 7.91864 5.4326 7.88973C5.19595 7.8489 5.07217 7.79693 5.08375 7.97693C5.09383 8.1357 5.13165 8.38185 5.21828 8.70696C5.4057 9.41099 6.0251 10.7676 7.19569 10.4523C7.50147 10.3699 7.7173 10.2071 7.8669 9.9995H7.41559V9.99958ZM5.66742 8.71662L6.49932 8.49748C6.49932 8.49748 6.47507 8.8175 6.16321 8.89972C5.85126 8.98185 5.66742 8.71662 5.66742 8.71662Z" fill="#E2574C"/>
<path d="M10.5473 7.68573C10.331 7.72364 9.81224 7.77087 9.17111 7.59902C8.5298 7.42727 8.1043 7.12689 7.93572 6.9857C7.69674 6.78553 7.59161 6.64643 7.48816 6.85684C7.3967 7.04243 7.27974 7.34446 7.16653 7.76729C6.92123 8.68289 6.73789 10.6151 8.25432 11.0217C9.77044 11.4279 10.5776 9.66281 10.8229 8.74712C10.9361 8.32438 10.9858 8.00427 10.9994 7.79786C11.015 7.56405 10.8544 7.63192 10.5473 7.68573ZM7.50048 8.44325C7.50048 8.44325 7.73946 8.07157 8.14478 8.18677C8.55036 8.30198 8.58177 8.75037 8.58177 8.75037L7.50048 8.44325ZM8.48989 10.1111C7.77695 9.90229 7.667 9.33378 7.667 9.33378L9.58218 9.86923C9.58218 9.86915 9.1956 10.3174 8.48989 10.1111ZM9.16702 8.94278C9.16702 8.94278 9.40567 8.57136 9.81092 8.68689C10.2162 8.80227 10.2481 9.25066 10.2481 9.25066L9.16702 8.94278Z" fill="#2EAD33"/>
<path d="M7.03708 9.71704L6.33231 9.91679C6.33231 9.91679 6.40886 9.48066 6.92805 9.30781L6.52897 7.81012L6.49449 7.8206C5.99961 7.95406 5.59953 7.91865 5.4326 7.88974C5.19596 7.84893 5.07217 7.79694 5.08375 7.97696C5.09383 8.13573 5.13165 8.38187 5.21828 8.70699C5.4057 9.41101 6.0251 10.7676 7.19569 10.4523L7.23017 10.4415L7.03708 9.71704ZM5.6675 8.71665L6.4994 8.49749C6.4994 8.49749 6.47516 8.81752 6.16329 8.89973C5.85134 8.98186 5.6675 8.71665 5.6675 8.71665Z" fill="#D65348"/>
<path d="M8.52205 10.119L8.4898 10.1111C7.77687 9.90229 7.66691 9.33378 7.66691 9.33378L8.65449 9.60983L9.17735 7.60069L9.17102 7.59902C8.52971 7.42727 8.10423 7.12689 7.93563 6.9857C7.69665 6.78553 7.59153 6.64643 7.48807 6.85684C7.3967 7.04243 7.27974 7.34446 7.16653 7.76729C6.92123 8.68289 6.73789 10.6151 8.25432 11.0216L8.2854 11.0286L8.52205 10.119ZM7.50048 8.44325C7.50048 8.44325 7.73946 8.07157 8.14478 8.18677C8.55036 8.30198 8.58177 8.75037 8.58177 8.75037L7.50048 8.44325Z" fill="#1D8D22"/>
<path d="M7.07287 9.70679L6.88387 9.76043C6.92852 10.0122 7.00722 10.2537 7.13075 10.4671C7.15225 10.4624 7.17358 10.4583 7.19548 10.4523C7.25288 10.4368 7.3061 10.4176 7.35734 10.3967C7.21931 10.1919 7.12801 9.95601 7.07287 9.70679ZM6.99907 7.93388C6.90194 8.29639 6.81505 8.81816 6.83897 9.34152C6.88178 9.32294 6.92701 9.30563 6.97724 9.29138L7.01223 9.28355C6.96957 8.72453 7.06178 8.15487 7.16565 7.76728C7.19199 7.66923 7.21839 7.57803 7.24471 7.49298C7.20231 7.51996 7.15667 7.54761 7.10468 7.5761C7.06962 7.68432 7.03422 7.8026 6.99907 7.93388Z" fill="#C04B41"/>
</svg>
