<svg width="1024" height="1024" viewBox="0 0 1024 1024" fill="none" xmlns="http://www.w3.org/2000/svg">
<g clip-path="url(#clip0_140_22)">
<path d="M768 0H256C114.615 0 0 114.615 0 256V768C0 909.385 114.615 1024 256 1024H768C909.385 1024 1024 909.385 1024 768V256C1024 114.615 909.385 0 768 0Z" fill="#00DC82"/>
<path d="M412.652 640.847L381.754 609.948C373.255 601.449 370.255 589.15 374.055 577.751C377.054 568.852 381.055 557.252 385.854 543.954H280.062C271.463 543.954 263.463 539.354 259.164 531.855C254.864 524.355 254.963 515.156 259.363 507.756L311.859 419.263C324.858 397.365 348.356 383.966 373.755 383.966H456.049C458.448 379.966 460.848 376.266 463.248 372.667C545.142 251.876 667.132 247.876 739.926 261.275C751.526 263.375 760.525 272.474 762.725 284.074C776.124 356.968 772.025 478.858 651.333 560.753C647.834 563.152 644.034 565.552 640.034 567.951V650.245C640.034 675.644 626.635 699.242 604.737 712.141L516.244 764.637C508.845 769.037 499.645 769.137 492.146 764.837C484.647 760.537 480.046 752.637 480.046 743.939V636.746C465.948 641.646 453.648 645.646 444.35 648.646C433.151 652.245 420.951 649.145 412.552 640.847H412.652ZM640.034 423.962C650.642 423.962 660.816 419.749 668.316 412.248C675.817 404.747 680.032 394.574 680.032 383.966C680.032 373.358 675.817 363.185 668.316 355.684C660.816 348.183 650.642 343.969 640.034 343.969C629.427 343.969 619.253 348.183 611.752 355.684C604.252 363.185 600.038 373.358 600.038 383.966C600.038 394.574 604.252 404.747 611.752 412.248C619.253 419.749 629.427 423.962 640.034 423.962Z" fill="#020421"/>
</g>
<defs>
<clipPath id="clip0_140_22">
<rect width="1024" height="1024" fill="white"/>
</clipPath>
</defs>
</svg>
