<svg width="16" height="16" viewBox="0 0 16 16" fill="none" xmlns="http://www.w3.org/2000/svg">
<rect x="2.5" y="2.5" width="11" height="11" rx="2.5" fill="white"/>
<rect x="2.5" y="2.5" width="11" height="11" rx="2.5" stroke="#BF2141" stroke-linecap="round"/>
<path d="M9.06336 5.027C8.96865 5.08256 8.81105 5.23984 8.62305 5.46796L8.79533 5.79155C8.91659 5.61969 9.03959 5.46448 9.16225 5.33324C9.17204 5.32282 9.17658 5.31796 9.17658 5.31796C9.17204 5.32282 9.16679 5.32838 9.16225 5.33324C9.12206 5.37699 9.0001 5.51865 8.81629 5.7985C8.99347 5.78982 9.26359 5.75371 9.48724 5.71621C9.55364 5.34817 9.42259 5.18151 9.42259 5.18151C9.42259 5.18151 9.25625 4.91416 9.06266 5.02839L9.06336 5.027Z" fill="url(#paint0_linear_77_681)"/>
<path d="M8.48318 7.74529C8.46117 7.7491 8.4388 7.75327 8.41539 7.75709C8.41539 7.75709 8.41504 7.75709 8.41504 7.75744C8.42692 7.7557 8.43845 7.75397 8.44998 7.75223C8.46082 7.7498 8.472 7.74772 8.48318 7.74529Z" fill="#BD202E"/>
<path d="M8.48318 7.74529C8.46117 7.7491 8.4388 7.75327 8.41539 7.75709C8.41539 7.75709 8.41504 7.75709 8.41504 7.75744C8.42692 7.7557 8.43845 7.75397 8.44998 7.75223C8.46082 7.7498 8.472 7.74772 8.48318 7.74529Z" fill="black"/>
<path d="M8.54332 7.46405C8.54297 7.46405 8.54297 7.46405 8.54297 7.4644C8.54646 7.46405 8.55031 7.46335 8.5538 7.46266C8.56848 7.46058 8.58281 7.45815 8.59678 7.45467C8.57931 7.4578 8.56184 7.46092 8.54332 7.46405Z" fill="#BD202E"/>
<path d="M8.54332 7.46405C8.54297 7.46405 8.54297 7.46405 8.54297 7.4644C8.54646 7.46405 8.55031 7.46335 8.5538 7.46266C8.56848 7.46058 8.58281 7.45815 8.59678 7.45467C8.57931 7.4578 8.56184 7.46092 8.54332 7.46405Z" fill="black"/>
<path d="M8.28804 6.62728C8.34046 6.52971 8.39357 6.43458 8.44704 6.34222C8.5026 6.2457 8.55921 6.15265 8.61617 6.06237C8.61932 6.05717 8.62316 6.05161 8.62631 6.0464C8.68257 5.95787 8.73953 5.87245 8.79649 5.79121L8.62421 5.46761C8.61128 5.48323 8.59835 5.49921 8.58507 5.51587C8.5351 5.57767 8.48373 5.64364 8.43061 5.71413C8.37086 5.79329 8.3097 5.87801 8.24715 5.96689C8.18984 6.04883 8.13113 6.13459 8.07243 6.22383C8.02245 6.29952 7.97283 6.37729 7.92321 6.45715C7.92146 6.45993 7.91972 6.46305 7.91797 6.46618L8.14267 6.90713C8.19019 6.81165 8.23911 6.71825 8.28804 6.62728Z" fill="url(#paint1_linear_77_681)"/>
<path d="M7.26437 9.1098C7.23467 9.1907 7.20462 9.27369 7.17491 9.35806C7.17456 9.3591 7.17421 9.36049 7.17352 9.36153C7.16932 9.37333 7.16478 9.38549 7.16094 9.39729C7.14067 9.45423 7.12319 9.50562 7.08301 9.62193C7.14905 9.65179 7.20217 9.73096 7.25249 9.82054C7.24725 9.72783 7.20881 9.64068 7.13508 9.57333C7.46111 9.58791 7.74312 9.50597 7.8864 9.26917C7.89933 9.24799 7.91121 9.22612 7.92204 9.20216C7.85599 9.28549 7.77387 9.32056 7.61977 9.31223C7.84691 9.21119 7.96048 9.11432 8.06007 8.9546C8.08384 8.91641 8.10725 8.87509 8.13101 8.82891C7.93252 9.03134 7.70468 9.08897 7.46007 9.04522L7.27835 9.06502C7.27241 9.08029 7.26717 9.09522 7.26123 9.1105L7.26437 9.1098Z" fill="url(#paint2_linear_77_681)"/>
<path d="M7.3514 8.70705C7.39053 8.60636 7.43107 8.50428 7.47231 8.4015C7.51214 8.3029 7.55268 8.2036 7.59461 8.1043C7.63655 8.00499 7.67918 7.90465 7.72251 7.80466C7.76654 7.70293 7.81197 7.60154 7.85845 7.5005C7.90423 7.40051 7.95035 7.30121 7.99753 7.20329C8.0143 7.16788 8.03178 7.13246 8.0489 7.0974C8.0786 7.03664 8.10866 6.97622 8.13906 6.9165C8.14081 6.91338 8.1422 6.90991 8.14395 6.90678L7.91925 6.46583C7.91576 6.47173 7.91192 6.47798 7.90807 6.48354C7.85565 6.5686 7.80359 6.6554 7.75257 6.74394C7.70085 6.83352 7.65018 6.92484 7.60055 7.01754C7.55897 7.09566 7.51808 7.17413 7.4779 7.25399C7.46986 7.26996 7.46217 7.28628 7.45413 7.30225C7.40521 7.40259 7.36118 7.49877 7.32099 7.59217C7.27556 7.69737 7.23573 7.79806 7.20113 7.89354C7.17807 7.95639 7.15745 8.0168 7.13823 8.07513C7.1225 8.12478 7.10783 8.17478 7.09315 8.22443C7.0596 8.34109 7.0306 8.45775 7.00684 8.57511L7.23258 9.01953C7.26228 8.94037 7.29304 8.85982 7.32449 8.77857C7.33392 8.75531 7.34231 8.73239 7.3514 8.71017V8.70705Z" fill="url(#paint3_linear_77_681)"/>
<path d="M7.00197 8.589C6.97366 8.73066 6.95339 8.87162 6.94326 9.01259L6.94221 9.02717C6.87162 8.91502 6.68327 8.80565 6.68362 8.80669C6.81885 9.00113 6.92124 9.19557 6.93627 9.38306C6.86393 9.39764 6.76504 9.37646 6.65077 9.3348C6.76993 9.44382 6.85939 9.47368 6.89468 9.48201C6.78496 9.48896 6.67103 9.5636 6.55607 9.64971C6.72415 9.58166 6.86009 9.55458 6.95793 9.57645C6.80348 10.0105 6.64902 10.4896 6.49316 11C6.54069 10.9861 6.569 10.9542 6.58472 10.9115C6.61233 10.8195 6.79509 10.2136 7.08094 9.42194C7.08933 9.39938 7.09737 9.37646 7.10575 9.35389C7.10785 9.3473 7.1103 9.34105 7.11274 9.33514C7.14279 9.25181 7.17459 9.16675 7.20674 9.07995C7.21408 9.06016 7.22142 9.04036 7.22911 9.02057C7.22911 9.02023 7.22946 9.01988 7.22946 9.01953L7.00336 8.57511C7.00266 8.57962 7.00162 8.58483 7.00057 8.59004L7.00197 8.589Z" fill="url(#paint4_linear_77_681)"/>
<path d="M8.17654 6.94324C8.16991 6.95643 8.16362 6.96963 8.15698 6.98282C8.13741 7.02275 8.11784 7.06337 8.09757 7.10504C8.0759 7.15017 8.05424 7.196 8.03222 7.24322C8.02104 7.26683 8.00986 7.29079 7.99867 7.3151C7.96513 7.38766 7.93123 7.46266 7.89663 7.54009C7.85435 7.63487 7.81067 7.73383 7.76699 7.8366C7.7254 7.93451 7.68242 8.03555 7.63979 8.14041C7.5989 8.23971 7.55767 8.34248 7.51573 8.44803C7.47834 8.54212 7.4406 8.63934 7.40286 8.73899C7.40111 8.7435 7.39936 8.74871 7.39762 8.75323C7.35988 8.85218 7.32179 8.95391 7.2837 9.05807C7.283 9.0605 7.28195 9.06259 7.28125 9.06536L7.46296 9.04557C7.45947 9.04488 7.45563 9.04453 7.45213 9.04384C7.66914 9.0171 7.95884 8.85565 8.14405 8.65497C8.23001 8.5633 8.30794 8.45498 8.37993 8.32824C8.43339 8.23415 8.48406 8.1293 8.53229 8.01368C8.57422 7.91264 8.61441 7.80292 8.6532 7.68452C8.60323 7.71056 8.54626 7.73001 8.48336 7.7432C8.47218 7.74563 8.461 7.74772 8.44947 7.7498C8.43793 7.75188 8.4264 7.75362 8.41452 7.75501C8.41452 7.75501 8.41487 7.75501 8.41487 7.75466C8.61755 7.67723 8.7451 7.52793 8.83771 7.34496C8.78459 7.38106 8.69793 7.42829 8.59414 7.45085C8.58016 7.45398 8.56583 7.45641 8.55116 7.45884C8.54766 7.45919 8.54382 7.45988 8.54032 7.46058H8.54102C8.61161 7.43141 8.67067 7.39843 8.72204 7.35989C8.73322 7.35155 8.74405 7.34322 8.75384 7.33419C8.76956 7.32065 8.78424 7.30642 8.79892 7.29183C8.808 7.28211 8.81674 7.27239 8.82548 7.26232C8.84574 7.23836 8.86461 7.21267 8.88209 7.18489C8.88733 7.17621 8.89292 7.16788 8.89781 7.15885C8.9048 7.14601 8.91109 7.13316 8.91738 7.12101C8.94569 7.06476 8.9684 7.01407 8.98622 6.96997C8.99531 6.94775 9.003 6.92761 9.00999 6.90817C9.01278 6.90053 9.01523 6.89324 9.01767 6.88595C9.02501 6.86477 9.0306 6.84602 9.03515 6.82935C9.04214 6.80435 9.04633 6.78456 9.04843 6.77033C9.04144 6.77554 9.03375 6.78109 9.02466 6.7863C8.96351 6.82276 8.85867 6.85539 8.77411 6.87102C8.77306 6.87137 8.77166 6.87137 8.77026 6.87171C8.76153 6.8731 8.75349 6.87449 8.74475 6.87553L8.74895 6.87345L8.17934 6.9356C8.17934 6.93699 8.17829 6.93942 8.17724 6.9415L8.17654 6.94324Z" fill="url(#paint5_linear_77_681)"/>
<path d="M8.81918 5.79746C8.76851 5.87488 8.7133 5.96273 8.65319 6.06237C8.65005 6.06724 8.64655 6.07314 8.64376 6.078C8.59239 6.16411 8.53788 6.25855 8.47987 6.36236C8.43024 6.45194 8.37853 6.54777 8.32471 6.65089C8.27788 6.74082 8.22966 6.8363 8.17969 6.93734L8.74929 6.87519C8.91563 6.79915 8.98972 6.73075 9.0617 6.6311C9.08057 6.60367 9.10014 6.5752 9.11901 6.54534C9.17772 6.45437 9.23503 6.35438 9.2864 6.25473C9.33602 6.15855 9.3797 6.06342 9.41325 5.97731C9.43457 5.9228 9.45169 5.87211 9.46357 5.82732C9.47406 5.78808 9.48209 5.75058 9.48838 5.71482C9.26718 5.75267 8.99566 5.78878 8.81744 5.79746H8.81918Z" fill="url(#paint6_linear_77_681)"/>
<path d="M8.44901 7.75223C8.43748 7.75431 8.42594 7.75605 8.41406 7.75744C8.42594 7.75639 8.43783 7.75431 8.44901 7.75223Z" fill="#BD202E"/>
<path opacity="0.35" d="M8.44901 7.75223C8.43748 7.75431 8.42594 7.75605 8.41406 7.75744C8.42594 7.75639 8.43783 7.75431 8.44901 7.75223Z" fill="#BD202E"/>
<path d="M8.44901 7.75223C8.43748 7.75431 8.42594 7.75605 8.41406 7.75744C8.42594 7.75639 8.43783 7.75431 8.44901 7.75223Z" fill="url(#paint7_linear_77_681)"/>
<path d="M8.54297 7.46405C8.54646 7.4637 8.55031 7.46301 8.5538 7.46231C8.55031 7.46266 8.54681 7.4637 8.54297 7.46405Z" fill="#BD202E"/>
<path opacity="0.35" d="M8.54297 7.46405C8.54646 7.4637 8.55031 7.46301 8.5538 7.46231C8.55031 7.46266 8.54681 7.4637 8.54297 7.46405Z" fill="#BD202E"/>
<path d="M8.54297 7.46405C8.54646 7.4637 8.55031 7.46301 8.5538 7.46231C8.55031 7.46266 8.54681 7.4637 8.54297 7.46405Z" fill="url(#paint8_linear_77_681)"/>
<defs>
<linearGradient id="paint0_linear_77_681" x1="8.77791" y1="5.51848" x2="10.0398" y2="5.16149" gradientUnits="userSpaceOnUse">
<stop stop-color="#F59723"/>
<stop offset="0.312" stop-color="#F69822"/>
<stop offset="0.838" stop-color="#E87726"/>
</linearGradient>
<linearGradient id="paint1_linear_77_681" x1="6.01271" y1="11.1574" x2="8.55476" y2="5.6631" gradientUnits="userSpaceOnUse">
<stop offset="0.323" stop-color="#9C2063"/>
<stop offset="0.63" stop-color="#C82037"/>
<stop offset="0.751" stop-color="#CC2135"/>
<stop offset="1" stop-color="#E87726"/>
</linearGradient>
<linearGradient id="paint2_linear_77_681" x1="6.87752" y1="10.7502" x2="8.39164" y2="7.4776" gradientUnits="userSpaceOnUse">
<stop stop-color="#282661"/>
<stop offset="0.0955" stop-color="#662E8C"/>
<stop offset="0.788" stop-color="#9E2064"/>
<stop offset="0.949" stop-color="#CC2032"/>
</linearGradient>
<linearGradient id="paint3_linear_77_681" x1="6.10457" y1="10.8258" x2="8.64662" y2="5.33157" gradientUnits="userSpaceOnUse">
<stop offset="0.323" stop-color="#9C2063"/>
<stop offset="0.63" stop-color="#C82037"/>
<stop offset="0.751" stop-color="#CC2135"/>
<stop offset="1" stop-color="#E87726"/>
</linearGradient>
<linearGradient id="paint4_linear_77_681" x1="6.36756" y1="10.4592" x2="7.70311" y2="7.57263" gradientUnits="userSpaceOnUse">
<stop stop-color="#282661"/>
<stop offset="0.0955" stop-color="#662E8C"/>
<stop offset="0.788" stop-color="#9E2064"/>
<stop offset="0.949" stop-color="#CC2032"/>
</linearGradient>
<linearGradient id="paint5_linear_77_681" x1="6.67822" y1="11.091" x2="9.22027" y2="5.59678" gradientUnits="userSpaceOnUse">
<stop offset="0.323" stop-color="#9C2063"/>
<stop offset="0.63" stop-color="#C82037"/>
<stop offset="0.751" stop-color="#CC2135"/>
<stop offset="1" stop-color="#E87726"/>
</linearGradient>
<linearGradient id="paint6_linear_77_681" x1="6.48931" y1="11.4173" x2="9.03137" y2="5.92299" gradientUnits="userSpaceOnUse">
<stop offset="0.323" stop-color="#9C2063"/>
<stop offset="0.63" stop-color="#C82037"/>
<stop offset="0.751" stop-color="#CC2135"/>
<stop offset="1" stop-color="#E87726"/>
</linearGradient>
<linearGradient id="paint7_linear_77_681" x1="6.84747" y1="11.1694" x2="9.38952" y2="5.67514" gradientUnits="userSpaceOnUse">
<stop offset="0.323" stop-color="#9C2063"/>
<stop offset="0.63" stop-color="#C82037"/>
<stop offset="0.751" stop-color="#CC2135"/>
<stop offset="1" stop-color="#E87726"/>
</linearGradient>
<linearGradient id="paint8_linear_77_681" x1="6.82755" y1="11.1604" x2="9.36962" y2="5.66611" gradientUnits="userSpaceOnUse">
<stop offset="0.323" stop-color="#9C2063"/>
<stop offset="0.63" stop-color="#C82037"/>
<stop offset="0.751" stop-color="#CC2135"/>
<stop offset="1" stop-color="#E87726"/>
</linearGradient>
</defs>
</svg>
