<svg width="16" height="16" viewBox="0 0 16 16" fill="none" xmlns="http://www.w3.org/2000/svg">
<rect x="2.5" y="2.5" width="11" height="11" rx="2.5" fill="#25272F"/>
<rect x="2.5" y="2.5" width="11" height="11" rx="2.5" stroke="#60A5FA"/>
<path d="M7.99996 5.40202L6.66354 7.71667C7.17062 7.56033 7.71616 7.53716 8.24496 7.66189L8.69662 7.7685L8.27169 9.57034L7.81938 9.46374C7.47193 9.38177 7.10975 9.46299 6.82964 9.68442C6.68952 9.79524 6.57914 9.93438 6.50348 10.0905L6.08541 9.8882C6.19118 9.66976 6.34581 9.4749 6.54113 9.32028C6.93185 9.01101 7.44127 8.89743 7.92628 9.01186L8.1381 8.11383C7.37931 7.93495 6.57961 8.11308 5.96833 8.59693C5.35704 9.08073 5 9.81827 5 10.5978L11 10.598L7.99996 5.40202Z" fill="#60A5FA"/>
</svg>
