<svg width="16" height="16" viewBox="0 0 16 16" fill="none" xmlns="http://www.w3.org/2000/svg">
<rect x="2.5" y="2.5" width="11" height="11" rx="2.5" fill="#14151A"/>
<rect x="2.5" y="2.5" width="11" height="11" rx="2.5" stroke="#FBF0DF"/>
<g clip-path="url(#clip0_74_148)">
<path d="M10.3315 6.9305C10.3195 6.91775 10.3067 6.905 10.294 6.893C10.2812 6.881 10.2692 6.8675 10.2565 6.8555C10.2438 6.8435 10.2318 6.83 10.219 6.818C10.2063 6.806 10.1943 6.7925 10.1815 6.7805C10.1687 6.7685 10.1568 6.755 10.144 6.743C10.1312 6.731 10.1192 6.7175 10.1065 6.7055C10.0938 6.6935 10.0817 6.68 10.069 6.668C10.441 7.0336 10.6541 7.53097 10.6623 8.0525C10.6623 9.29525 9.40075 10.3062 7.84975 10.3062C6.98125 10.3062 6.20425 9.989 5.6875 9.49175L5.725 9.52925L5.7625 9.56675L5.8 9.60425L5.8375 9.64175L5.875 9.67925L5.9125 9.71675L5.95 9.75425C6.466 10.2725 7.26025 10.6062 8.14975 10.6062C9.70075 10.6062 10.9623 9.59525 10.9623 8.35625C10.9623 7.82675 10.7343 7.325 10.3315 6.9305Z" fill="black"/>
<path d="M10.4746 8.0525C10.4746 9.19325 9.29936 10.118 7.84961 10.118C6.39986 10.118 5.22461 9.19325 5.22461 8.0525C5.22461 7.34525 5.67461 6.7205 6.36611 6.35C7.05761 5.9795 7.48811 5.6 7.84961 5.6C8.21111 5.6 8.52011 5.90975 9.33311 6.35C10.0246 6.7205 10.4746 7.34525 10.4746 8.0525Z" fill="#FBF0DF"/>
<path d="M10.4748 8.0525C10.4745 7.90596 10.4543 7.76013 10.4148 7.619C10.2101 10.1165 7.16357 10.2365 5.96582 9.4895C6.50425 9.90683 7.16868 10.1285 7.84982 10.118C9.29732 10.118 10.4748 9.19175 10.4748 8.0525Z" fill="#F6DECE"/>
<path d="M6.83936 6.21275C7.17461 6.01175 7.62011 5.6345 8.05811 5.63375C7.99073 5.61197 7.92042 5.60059 7.84961 5.6C7.66811 5.6 7.47461 5.69375 7.23086 5.83475C7.14611 5.88425 7.05836 5.939 6.96536 5.996C6.79061 6.104 6.59036 6.22625 6.36536 6.3485C5.65136 6.73475 5.22461 7.3715 5.22461 8.0525C5.22461 8.0825 5.22461 8.1125 5.22461 8.14175C5.67911 6.536 6.50486 6.41375 6.83936 6.21275Z" fill="#FFFEFC"/>
<path fill-rule="evenodd" clip-rule="evenodd" d="M7.63316 5.78975C7.63421 5.96684 7.59702 6.14207 7.52415 6.30348C7.45128 6.46488 7.34443 6.60866 7.21091 6.725C7.18991 6.74375 7.20641 6.77975 7.23341 6.76925C7.48616 6.671 7.82741 6.377 7.68341 5.78375C7.67741 5.75 7.63316 5.759 7.63316 5.78975ZM7.80341 5.78975C7.89517 5.93948 7.95348 6.10728 7.97432 6.28166C7.99516 6.45603 7.97805 6.63285 7.92416 6.8C7.91516 6.82625 7.94741 6.84875 7.96541 6.827C8.12966 6.617 8.27291 6.2 7.84391 5.75C7.82216 5.7305 7.78841 5.7605 7.80341 5.78675V5.78975ZM8.01041 5.777C8.15412 5.87874 8.27434 6.01011 8.36296 6.16226C8.45159 6.31441 8.50655 6.4838 8.52416 6.659C8.5234 6.66531 8.5251 6.67167 8.5289 6.67677C8.53271 6.68186 8.53833 6.68529 8.5446 6.68636C8.55087 6.68742 8.55731 6.68602 8.56258 6.68247C8.56785 6.67891 8.57155 6.67346 8.57291 6.66725C8.64191 6.4055 8.60291 5.95925 8.03516 5.7275C8.00516 5.7155 7.98566 5.756 8.01041 5.774V5.777ZM6.62591 6.557C6.79685 6.50593 6.95512 6.41943 7.09042 6.30313C7.22571 6.18683 7.335 6.04334 7.41116 5.882C7.42466 5.855 7.46741 5.8655 7.46066 5.8955C7.33091 6.4955 6.89666 6.62075 6.62666 6.60425C6.59816 6.605 6.59891 6.56525 6.62591 6.557Z" fill="#CCBEA7"/>
<path d="M7.84961 10.3062C6.29861 10.3062 5.03711 9.29525 5.03711 8.0525C5.03711 7.3025 5.50061 6.60275 6.27686 6.1835C6.50186 6.0635 6.69461 5.94275 6.86636 5.837C6.96086 5.7785 7.05011 5.72375 7.13636 5.67275C7.39961 5.51675 7.62461 5.4125 7.84961 5.4125C8.07461 5.4125 8.27111 5.5025 8.51711 5.648C8.59211 5.69075 8.66711 5.73725 8.74736 5.78825C8.93411 5.90375 9.14486 6.03425 9.42236 6.1835C10.1986 6.60275 10.6621 7.30175 10.6621 8.0525C10.6621 9.29525 9.40061 10.3062 7.84961 10.3062ZM7.84961 5.6C7.66811 5.6 7.47461 5.69375 7.23086 5.83475C7.14611 5.88425 7.05836 5.939 6.96536 5.996C6.79061 6.104 6.59036 6.22625 6.36536 6.3485C5.65136 6.73475 5.22461 7.3715 5.22461 8.0525C5.22461 9.19175 6.40211 10.1187 7.84961 10.1187C9.29711 10.1187 10.4746 9.19175 10.4746 8.0525C10.4746 7.3715 10.0479 6.73475 9.33311 6.35C9.04961 6.2 8.82836 6.059 8.64911 5.948C8.56736 5.89775 8.49236 5.85125 8.42411 5.81C8.19686 5.675 8.03111 5.6 7.84961 5.6Z" fill="black"/>
<path d="M8.37823 8.6C8.34454 8.73799 8.26785 8.8617 8.15923 8.95325C8.07769 9.0323 7.97213 9.08191 7.85923 9.09425C7.74295 9.08387 7.63368 9.03413 7.54948 8.95325C7.44198 8.86127 7.36636 8.73761 7.33348 8.6C7.33239 8.59183 7.33319 8.58352 7.33581 8.57571C7.33842 8.56789 7.3428 8.56078 7.34859 8.55491C7.35438 8.54905 7.36144 8.54459 7.36922 8.54188C7.377 8.53916 7.3853 8.53826 7.39348 8.53925H8.31898C8.32711 8.53839 8.33532 8.53938 8.34301 8.54215C8.35069 8.54492 8.35765 8.54939 8.36335 8.55524C8.36906 8.56109 8.37336 8.56816 8.37594 8.57591C8.37851 8.58366 8.3793 8.5919 8.37823 8.6Z" fill="#B71422"/>
<path d="M7.55025 8.95925C7.63428 9.04017 7.74315 9.09038 7.85925 9.10175C7.97509 9.09022 8.08367 9.04002 8.1675 8.95925C8.19432 8.93426 8.21937 8.90744 8.2425 8.879C8.1963 8.82658 8.13986 8.78418 8.07666 8.75438C8.01346 8.72459 7.94483 8.70804 7.875 8.70575C7.80028 8.70752 7.72711 8.72742 7.66178 8.76374C7.59646 8.80006 7.54094 8.85171 7.5 8.91425C7.51725 8.93 7.53225 8.945 7.55025 8.95925Z" fill="#FF6164"/>
<path d="M7.56211 8.9C7.59929 8.85194 7.64689 8.81293 7.70132 8.78591C7.75575 8.75889 7.81559 8.74456 7.87636 8.744C7.98868 8.74731 8.09569 8.79253 8.17636 8.87075C8.19361 8.852 8.21011 8.8325 8.22586 8.813C8.13045 8.72213 8.00435 8.67046 7.87261 8.66825C7.8022 8.66886 7.73281 8.68504 7.6694 8.71565C7.60599 8.74625 7.55014 8.79051 7.50586 8.84525C7.52359 8.86452 7.54237 8.8828 7.56211 8.9Z" fill="black"/>
<path d="M7.85672 9.13925C7.73174 9.1283 7.61413 9.07544 7.52297 8.98925C7.40687 8.89106 7.32515 8.75837 7.28972 8.6105C7.28718 8.59734 7.28761 8.58377 7.29098 8.5708C7.29436 8.55782 7.30059 8.54576 7.30922 8.5355C7.3195 8.52309 7.33247 8.51319 7.34716 8.50656C7.36185 8.49993 7.37786 8.49675 7.39397 8.49725H8.31947C8.33555 8.49691 8.35151 8.50017 8.36617 8.50679C8.38083 8.51341 8.39383 8.52322 8.40422 8.5355C8.41277 8.5458 8.41889 8.55788 8.42213 8.57087C8.42538 8.58385 8.42566 8.59739 8.42297 8.6105C8.38753 8.75837 8.30581 8.89106 8.18972 8.98925C8.09875 9.07529 7.98143 9.12814 7.85672 9.13925ZM7.39397 8.58425C7.38197 8.58425 7.37897 8.5895 7.37822 8.591C7.40992 8.71923 7.48164 8.83402 7.58297 8.91875C7.65706 8.99175 7.7534 9.03794 7.85672 9.05C7.95977 9.03808 8.056 8.99247 8.13047 8.92025C8.23148 8.83538 8.30292 8.72061 8.33447 8.5925C8.33283 8.5901 8.33057 8.5882 8.32792 8.58701C8.32527 8.58582 8.32235 8.58539 8.31947 8.58575L7.39397 8.58425Z" fill="black"/>
<path d="M8.99148 8.6465C9.2338 8.6465 9.43023 8.53099 9.43023 8.3885C9.43023 8.24601 9.2338 8.1305 8.99148 8.1305C8.74917 8.1305 8.55273 8.24601 8.55273 8.3885C8.55273 8.53099 8.74917 8.6465 8.99148 8.6465Z" fill="#FEBBD0"/>
<path d="M6.72098 8.6465C6.96329 8.6465 7.15973 8.53099 7.15973 8.3885C7.15973 8.24601 6.96329 8.1305 6.72098 8.1305C6.47866 8.1305 6.28223 8.24601 6.28223 8.3885C6.28223 8.53099 6.47866 8.6465 6.72098 8.6465Z" fill="#FEBBD0"/>
<path fill-rule="evenodd" clip-rule="evenodd" d="M6.92715 8.285C7.00891 8.28515 7.08888 8.26104 7.15694 8.21572C7.225 8.1704 7.27808 8.10591 7.30948 8.03041C7.34087 7.95492 7.34916 7.8718 7.3333 7.79159C7.31744 7.71138 7.27814 7.63767 7.22038 7.5798C7.16261 7.52193 7.08898 7.4825 7.0088 7.4665C6.92861 7.45049 6.84548 7.45863 6.76993 7.48989C6.69437 7.52114 6.62979 7.57411 6.58435 7.64208C6.5389 7.71006 6.51465 7.78998 6.51465 7.87175C6.51465 7.98122 6.55808 8.08622 6.63542 8.1637C6.71276 8.24117 6.81768 8.2848 6.92715 8.285ZM8.7849 8.285C8.86676 8.28559 8.94695 8.26186 9.0153 8.21682C9.08365 8.17177 9.13709 8.10744 9.16882 8.03198C9.20056 7.95653 9.20918 7.87334 9.19357 7.79298C9.17797 7.71262 9.13885 7.63871 9.08117 7.58061C9.0235 7.52252 8.94987 7.48286 8.86963 7.46667C8.78939 7.45048 8.70614 7.45849 8.63046 7.48968C8.55477 7.52087 8.49005 7.57383 8.44451 7.64185C8.39897 7.70987 8.37465 7.78989 8.37465 7.87175C8.37445 7.98089 8.41751 8.08567 8.49441 8.16312C8.5713 8.24058 8.67576 8.2844 8.7849 8.285Z" fill="black"/>
<path fill-rule="evenodd" clip-rule="evenodd" d="M6.80001 7.898C6.83074 7.89815 6.86083 7.88917 6.88646 7.8722C6.91209 7.85523 6.93211 7.83104 6.94397 7.80268C6.95584 7.77433 6.95902 7.74309 6.95312 7.71292C6.94721 7.68276 6.93248 7.65503 6.9108 7.63324C6.88912 7.61145 6.86146 7.59659 6.83132 7.59054C6.80119 7.58449 6.76993 7.58752 6.74152 7.59925C6.71311 7.61098 6.68882 7.63087 6.67173 7.65642C6.65463 7.68197 6.64551 7.71201 6.64551 7.74275C6.64551 7.78379 6.66176 7.82317 6.69071 7.85226C6.71967 7.88136 6.75896 7.8978 6.80001 7.898ZM8.65776 7.898C8.68849 7.89815 8.71858 7.88917 8.74421 7.8722C8.76984 7.85523 8.78986 7.83104 8.80172 7.80268C8.81359 7.77433 8.81677 7.74309 8.81087 7.71292C8.80496 7.68276 8.79023 7.65503 8.76855 7.63324C8.74687 7.61145 8.71921 7.59659 8.68907 7.59054C8.65894 7.58449 8.62768 7.58752 8.59927 7.59925C8.57086 7.61098 8.54657 7.63087 8.52948 7.65642C8.51238 7.68197 8.50326 7.71201 8.50326 7.74275C8.50325 7.78354 8.5193 7.82269 8.54793 7.85174C8.57656 7.88079 8.61547 7.89741 8.65626 7.898H8.65776Z" fill="white"/>
</g>
<defs>
<clipPath id="clip0_74_148">
<rect width="6" height="5.25" fill="white" transform="translate(5 5.375)"/>
</clipPath>
</defs>
</svg>
