<svg width="16" height="16" viewBox="0 0 16 16" fill="none" xmlns="http://www.w3.org/2000/svg">
<rect x="2.5" y="2.5" width="11" height="11" rx="2.5" fill="black"/>
<rect x="2.5" y="2.5" width="11" height="11" rx="2.5" stroke="white"/>
<path d="M7.99739 6.05046C6.92242 6.05046 6.04785 6.92503 6.04785 8C6.04785 9.07497 6.92242 9.94953 7.99739 9.94953C9.07236 9.94953 9.94693 9.07497 9.94693 8C9.94693 6.92503 9.07236 6.05046 7.99739 6.05046ZM7.99739 9.00889C7.44012 9.00889 6.98849 8.55727 6.98849 8C6.98849 7.44273 7.44012 6.9911 7.99739 6.9911C8.55466 6.9911 9.00628 7.44273 9.00628 8C9.00628 8.55727 8.55466 9.00889 7.99739 9.00889Z" fill="white"/>
<path fill-rule="evenodd" clip-rule="evenodd" d="M8.16101 5.73026V5.00236C9.74315 5.08695 11 6.3968 11 8C11 9.60319 9.74315 10.9127 8.16101 10.9976V10.2697C9.34017 10.1855 10.2739 9.20022 10.2739 8C10.2739 6.79978 9.34017 5.81448 8.16101 5.73026ZM6.27827 9.48847C5.96569 9.12761 5.7642 8.668 5.72826 8.16337H5C5.03776 8.86948 5.3202 9.51025 5.76275 10.0036L6.27791 9.48847H6.27827ZM7.83429 10.9976V10.2697C7.32929 10.2338 6.86968 10.0327 6.50882 9.71973L5.99366 10.2349C6.4874 10.6778 7.12817 10.9599 7.83392 10.9976H7.83429Z" fill="url(#paint0_linear_82_455)"/>
<defs>
<linearGradient id="paint0_linear_82_455" x1="8.27866" y1="5.42389" x2="5.32785" y2="8.3747" gradientUnits="userSpaceOnUse">
<stop stop-color="#0096FF"/>
<stop offset="1" stop-color="#FF1E56"/>
</linearGradient>
</defs>
</svg>
