<svg width="16" height="16" viewBox="0 0 16 16" fill="none" xmlns="http://www.w3.org/2000/svg">
<rect x="2.5" y="2.5" width="11" height="11" rx="2.5" stroke="#FFCF00"/>
<path d="M8 11C9.65685 11 11 9.65685 11 8C11 6.34315 9.65685 5 8 5C6.34315 5 5 6.34315 5 8C5 9.65685 6.34315 11 8 11Z" fill="#FFCF00"/>
<path d="M6.62431 6.37613L8.24818 8L6.62431 9.62387L6.22656 9.22613L7.45268 8L6.22656 6.77387L6.62431 6.37613ZM8.42431 6.37613L10.0482 8L8.42431 9.62387L8.02656 9.22613L9.25268 8L8.02656 6.77387L8.42431 6.37613Z" fill="#191919"/>
</svg>
