<svg width="16" height="16" viewBox="0 0 16 16" fill="none" xmlns="http://www.w3.org/2000/svg">
<rect x="2.5" y="2.5" width="11" height="11" rx="2.5" stroke="#478CBF"/>
<path d="M7.38976 5.17096C7.11567 5.23189 6.84454 5.3167 6.59033 5.44465C6.59615 5.6691 6.61066 5.88417 6.64007 6.10262C6.54135 6.16587 6.43761 6.22015 6.3454 6.29419C6.25171 6.36626 6.15601 6.43524 6.07119 6.51953C5.90171 6.40744 5.72236 6.30209 5.53758 6.20909C5.3384 6.42346 5.15214 6.65484 5 6.91374C5.11446 7.09891 5.23396 7.27247 5.36299 7.43717H5.36658V9.02618C5.36949 9.0262 5.37242 9.02634 5.3753 9.0266L6.34945 9.1205C6.40048 9.12543 6.44047 9.16651 6.44402 9.21765L6.47406 9.64767L7.32382 9.70832L7.38234 9.31142C7.38993 9.25996 7.43409 9.22184 7.48614 9.22184H8.51391C8.56593 9.22184 8.61008 9.25996 8.61767 9.31142L8.6762 9.70832L9.52598 9.64767L9.55599 9.21765C9.55957 9.16651 9.59953 9.12546 9.65056 9.1205L10.6243 9.0266C10.6272 9.02633 10.6301 9.02621 10.633 9.02618V8.89938L10.6334 8.89924V7.43717H10.637C10.7661 7.27246 10.8855 7.09889 11 6.91374C10.8479 6.65482 10.6616 6.42345 10.4624 6.2091C10.2777 6.30208 10.0982 6.40742 9.92874 6.51953C9.84394 6.43524 9.74842 6.36626 9.6546 6.29419C9.56243 6.22015 9.45853 6.16586 9.36 6.10262C9.38933 5.88417 9.40386 5.6691 9.4097 5.44465C9.15548 5.31669 8.88436 5.23188 8.61014 5.17095C8.50065 5.35496 8.40053 5.5542 8.31334 5.74901C8.20993 5.73173 8.10605 5.72533 8.00204 5.72409V5.72395C8.00132 5.72395 8.00064 5.72409 8.00002 5.72409C7.99938 5.72409 7.99868 5.72395 7.99803 5.72395V5.72409C7.89383 5.72532 7.79002 5.73173 7.6866 5.74901C7.59945 5.55422 7.49941 5.35497 7.38976 5.17096ZM5.36492 9.23634C5.36532 9.33048 5.36652 9.43362 5.36652 9.45416C5.36652 10.3793 6.54009 10.8239 7.99814 10.8291H8.00173C9.45978 10.8239 10.633 10.3793 10.633 9.45416C10.633 9.43324 10.6343 9.33054 10.6347 9.23634L9.75908 9.3208L9.72889 9.75312C9.72526 9.80523 9.68382 9.8467 9.63171 9.85044L8.59404 9.92448C8.59151 9.92467 8.58898 9.92475 8.58648 9.92475C8.53491 9.92475 8.49043 9.88689 8.48282 9.8351L8.42332 9.43158H7.57664L7.51714 9.8351C7.50914 9.88942 7.4606 9.92848 7.40591 9.92447L6.36824 9.85044C6.31614 9.8467 6.2747 9.80523 6.27106 9.75312L6.24091 9.3208L5.36494 9.23634H5.36492Z" fill="#478CBF"/>
<path d="M6.61921 7.49544C6.29512 7.49544 6.03223 7.75806 6.03223 8.08221C6.03223 8.40656 6.2951 8.66931 6.61921 8.66931C6.94346 8.66931 7.20628 8.40656 7.20628 8.08221C7.20628 7.75806 6.94346 7.49544 6.61921 7.49544ZM9.3811 7.49544C9.0568 7.49544 8.79399 7.75806 8.79399 8.08221C8.79399 8.40656 9.0568 8.66931 9.3811 8.66931C9.70517 8.66931 9.96801 8.40656 9.96801 8.08221C9.96801 7.75806 9.70517 7.49544 9.3811 7.49544ZM8.00003 7.8388C7.89566 7.8388 7.81107 7.9158 7.81107 8.01053V8.55097C7.81107 8.64579 7.89566 8.72271 8.00003 8.72271C8.1044 8.72271 8.1892 8.64579 8.1892 8.55097V8.01053C8.1892 7.9158 8.10441 7.8388 8.00003 7.8388Z" fill="white"/>
<path d="M6.67481 7.72744C6.4596 7.72744 6.28516 7.90198 6.28516 8.11713C6.28516 8.33228 6.45961 8.50664 6.67481 8.50664C6.89013 8.50664 7.0645 8.33228 7.0645 8.11713C7.0645 7.90199 6.89012 7.72744 6.67481 7.72744ZM9.32427 7.72744C9.10912 7.72744 8.93479 7.90198 8.93479 8.11713C8.93479 8.33228 9.10913 8.50664 9.32427 8.50664C9.53964 8.50664 9.71393 8.33228 9.71393 8.11713C9.71393 7.90199 9.53963 7.72744 9.32427 7.72744Z" fill="#414042"/>
<path d="M10.633 9.02623C10.633 9.02623 10.6242 8.97257 10.6191 8.97305L9.64532 9.06701C9.56784 9.07449 9.50766 9.13628 9.50222 9.21393L9.47547 9.59736L8.72212 9.65111L8.67088 9.3036C8.65947 9.22631 8.59197 9.16804 8.51384 9.16804H7.48606C7.40796 9.16804 7.34046 9.22631 7.32904 9.3036L7.27777 9.65111L6.52442 9.59736L6.49767 9.21393C6.49223 9.13625 6.43205 9.07446 6.35457 9.06698L5.38031 8.97305C5.37527 8.97256 5.37159 9.02628 5.36655 9.02628L5.36523 9.23702L6.19035 9.37008L6.21737 9.75694C6.22284 9.83525 6.28603 9.89858 6.3644 9.90421L7.40194 9.97822C7.40587 9.97849 7.40974 9.97865 7.41362 9.97865C7.49159 9.97865 7.55898 9.92035 7.57039 9.84306L7.62311 9.48549H8.37682L8.42954 9.84306C8.44093 9.92033 8.5084 9.97862 8.58647 9.97862C8.5903 9.97862 8.59412 9.97849 8.59786 9.97822L9.63554 9.9042C9.71388 9.89858 9.7771 9.83525 9.78256 9.75693L9.80956 9.37007L10.6343 9.23642L10.633 9.02623Z" fill="white"/>
</svg>
