<svg width="16" height="16" viewBox="0 0 16 16" fill="none" xmlns="http://www.w3.org/2000/svg">
<rect x="2.5" y="2.5" width="11" height="11" rx="2.5" stroke="#009438"/>
<path d="M5.38594 8.00451V6.57249C5.38454 6.54728 5.39065 6.52223 5.4035 6.50049C5.41635 6.47876 5.43537 6.46134 5.45813 6.45042L7.92821 5.02384C7.97265 4.99609 8.02253 4.99046 8.06697 5.01821L10.5481 6.45023C10.5694 6.46247 10.5869 6.48035 10.5986 6.50189C10.6103 6.52343 10.6159 6.5478 10.6147 6.5723V9.43091C10.6159 9.45541 10.6103 9.47978 10.5986 9.50132C10.5869 9.52286 10.5694 9.54074 10.5481 9.55298L8.41668 10.7849C8.30501 10.8518 8.1921 10.9165 8.07803 10.9792C8.02816 11.0069 7.97809 11.0069 7.92803 10.9792L5.45251 9.5526C5.40807 9.52485 5.38594 9.49147 5.38594 9.43597V8.00395V8.00451Z" fill="#009438"/>
<path d="M7.1344 7.47142V9.14026C7.1344 9.3289 6.98439 9.49541 6.78469 9.48997C6.66281 9.48435 6.5683 9.43447 6.50342 9.32909C6.47005 9.27921 6.45898 9.22371 6.45898 9.16258V6.84438C6.45898 6.68875 6.5533 6.57811 6.67537 6.52805C6.79744 6.47798 6.91951 6.48923 7.04177 6.52805C7.1584 6.56143 7.24709 6.63343 7.32303 6.72231L8.7995 8.49298C8.80512 8.4986 8.81075 8.50985 8.82162 8.52073V6.83313C8.82162 6.65556 8.9435 6.5168 9.11601 6.50011C9.3324 6.47236 9.47678 6.62762 9.49891 6.78888V9.15152C9.49891 9.28277 9.43778 9.37915 9.32678 9.44028C9.24352 9.48472 9.15464 9.49579 9.06051 9.49016C8.92435 9.4811 8.79525 9.42632 8.69411 9.33471C8.63861 9.28484 8.5998 9.22371 8.54973 9.1682L7.14527 7.48623C7.14527 7.48061 7.13965 7.47498 7.13402 7.46935L7.1344 7.47142Z" fill="white"/>
</svg>
