<svg width="16" height="16" viewBox="0 0 16 16" fill="none" xmlns="http://www.w3.org/2000/svg">
<rect x="2.5" y="2.5" width="11" height="11" rx="2.5" stroke="white"/>
<path d="M10.5446 6.60529C10.2483 6.30896 9.85644 6.14488 9.43766 6.14243H7.79441C7.58869 6.14243 7.38787 6.18162 7.19685 6.25998C7.00584 6.33835 6.83195 6.45345 6.68501 6.60039C6.53808 6.74733 6.42297 6.91876 6.34461 7.11223C6.26379 7.30324 6.22461 7.50651 6.22461 7.71468V9.35059C6.22461 9.76936 6.3887 10.1636 6.68501 10.46C6.98134 10.7563 7.37562 10.9204 7.79441 10.9204H9.43031C9.63847 10.9204 9.83929 10.8787 10.0328 10.8004C10.2238 10.722 10.3952 10.6069 10.5422 10.46C10.6866 10.313 10.8017 10.1416 10.8801 9.95058C10.9609 9.75712 11.0001 9.5563 11.0001 9.34814V7.71468C11.0001 7.29591 10.8385 6.90162 10.5446 6.60529ZM8.0442 7.56283C8.03195 7.70243 7.97072 7.83468 7.87277 7.93508C7.78216 8.0257 7.66951 8.08446 7.54461 8.10896C7.50787 8.11631 7.47114 8.11875 7.4344 8.11875C7.34624 8.11875 7.25807 8.09916 7.17726 8.06243C7.06216 8.00855 6.9691 7.92284 6.90542 7.81263C6.84176 7.70243 6.81481 7.57753 6.82461 7.45018C6.83685 7.32284 6.88583 7.20528 6.9691 7.10977C7.04991 7.01181 7.16011 6.94569 7.28257 6.91386C7.40501 6.88202 7.53236 6.88937 7.65236 6.93345C7.76991 6.97998 7.87032 7.05835 7.94134 7.16366C8.02215 7.28121 8.05644 7.42079 8.0442 7.56283ZM10.1013 10.0583C9.91522 10.242 9.67032 10.3449 9.40827 10.3449C9.2148 10.3449 9.02623 10.2886 8.8646 10.1783C8.70298 10.0706 8.57807 9.91875 8.50216 9.73998C8.42869 9.5612 8.40909 9.36529 8.44827 9.17426C8.48501 8.98324 8.57807 8.80937 8.71521 8.67222C8.85236 8.53508 9.02623 8.44203 9.21726 8.40529C9.40827 8.3661 9.6042 8.38569 9.78297 8.45916C9.96175 8.53508 10.116 8.65998 10.2238 8.82162C10.3315 8.98324 10.3879 9.16936 10.3879 9.36529C10.3879 9.62733 10.285 9.87222 10.1013 10.0583Z" fill="white"/>
<path d="M5.55102 6.18165C5.85534 6.18165 6.10204 5.93495 6.10204 5.63063C6.10204 5.32631 5.85534 5.07961 5.55102 5.07961C5.2467 5.07961 5 5.32631 5 5.63063C5 5.93495 5.2467 6.18165 5.55102 6.18165Z" fill="white"/>
</svg>
