<svg width="16" height="16" viewBox="0 0 16 16" fill="none" xmlns="http://www.w3.org/2000/svg">
<rect x="2.5" y="2.5" width="11" height="11" rx="2.5" stroke="#FFE201"/>
<path d="M8.50795 5.13615L10.226 6.12804C10.5404 6.30957 10.7341 6.64505 10.7341 7.00811V8.99189C10.7341 9.35496 10.5404 9.69043 10.226 9.87196L8.50795 10.8638C8.19354 11.0454 7.80616 11.0454 7.49175 10.8638L5.77373 9.87196C5.45931 9.69043 5.26562 9.35496 5.26562 8.99189V7.00811C5.26562 6.64505 5.45931 6.30957 5.77373 6.12804L7.49175 5.13615C7.80616 4.95462 8.19354 4.95462 8.50795 5.13615Z" fill="url(#paint0_linear_85_586)"/>
<path fill-rule="evenodd" clip-rule="evenodd" d="M8.47453 5.1933C8.18054 5.02355 7.81832 5.02355 7.52433 5.1933L7.49134 5.13615L7.52433 5.1933L5.80631 6.18519C5.51231 6.35493 5.33119 6.66862 5.33119 7.00811V8.99189C5.33119 9.33138 5.51231 9.64507 5.80631 9.81482L7.52433 10.8067L7.49134 10.8639L7.52433 10.8067C7.81832 10.9765 8.18054 10.9765 8.47453 10.8067L8.50753 10.8639L8.47453 10.8067L10.1926 9.81482C10.4866 9.64507 10.6677 9.33138 10.6677 8.99189V7.00811C10.6677 6.66862 10.4866 6.35493 10.1926 6.18519L8.47453 5.1933L8.50753 5.13615L8.47453 5.1933ZM7.45834 5.079C7.79317 4.88568 8.2057 4.88568 8.54052 5.079L10.2585 6.07089L10.2256 6.12804L10.2585 6.07089C10.5934 6.26421 10.7996 6.62147 10.7996 7.00811V8.99189C10.7996 9.37854 10.5934 9.73579 10.2585 9.92911L10.2256 9.87196L10.2585 9.92911L8.54052 10.921C8.2057 11.1143 7.79317 11.1143 7.45834 10.921L5.74032 9.92911L5.77331 9.87196L5.74032 9.92911C5.40549 9.73579 5.19922 9.37854 5.19922 8.99189V7.00811C5.19922 6.62147 5.40549 6.26421 5.74032 6.07089L5.77331 6.12804L5.74032 6.07089L7.45834 5.079Z" fill="white"/>
<path fill-rule="evenodd" clip-rule="evenodd" d="M7.42309 8.05774L5.70508 7.06583L5.75388 6.9813L7.47189 7.9732C7.79163 8.15778 8.18556 8.15778 8.50529 7.9732L10.2233 6.9813L10.2721 7.06583L8.5541 8.05774L8.5541 8.05774C8.20416 8.25975 7.77303 8.25975 7.42309 8.05774L7.42309 8.05774Z" fill="url(#paint1_linear_85_586)"/>
<path fill-rule="evenodd" clip-rule="evenodd" d="M6.07324 9.97043V8.42632H6.12603V9.97043H6.07324ZM6.40318 10.1552V8.92783H6.45597V10.1552H6.40318ZM6.69353 10.3664V9.42934H6.74632V10.3664H6.69353Z" fill="url(#paint2_linear_85_586)"/>
<path fill-rule="evenodd" clip-rule="evenodd" d="M5.7168 9.78365V8.06796H5.76959V9.78365H5.7168Z" fill="url(#paint3_linear_85_586)"/>
<defs>
<linearGradient id="paint0_linear_85_586" x1="7.99985" y1="4.76659" x2="7.99985" y2="11.2334" gradientUnits="userSpaceOnUse">
<stop stop-color="#FFF500"/>
<stop offset="0.686651" stop-color="#FFC000"/>
<stop offset="1" stop-color="#FF7A00"/>
</linearGradient>
<linearGradient id="paint1_linear_85_586" x1="7.98626" y1="8.50151" x2="7.98626" y2="7.03658" gradientUnits="userSpaceOnUse">
<stop stop-color="white"/>
<stop offset="1" stop-color="white" stop-opacity="0.24"/>
</linearGradient>
<linearGradient id="paint2_linear_85_586" x1="6.40978" y1="8.42632" x2="6.40978" y2="10.3664" gradientUnits="userSpaceOnUse">
<stop stop-opacity="0"/>
<stop offset="1"/>
</linearGradient>
<linearGradient id="paint3_linear_85_586" x1="5.74319" y1="8.9258" x2="5.7676" y2="8.9258" gradientUnits="userSpaceOnUse">
<stop stop-opacity="0"/>
<stop offset="1"/>
</linearGradient>
</defs>
</svg>
