<svg width="16" height="16" viewBox="0 0 16 16" fill="none" xmlns="http://www.w3.org/2000/svg">
<rect x="2.5" y="2.5" width="11" height="11" rx="2.5" stroke="#E2574C"/>
<path d="M6.97766 8.29148C6.75368 8.35505 6.60674 8.4665 6.50994 8.57786C6.60265 8.49672 6.72684 8.42226 6.89437 8.37478C7.06571 8.32621 7.21189 8.32656 7.33268 8.34987V8.25542C7.22964 8.246 7.11151 8.2535 6.97766 8.29148ZM6.4997 7.4975L5.66789 7.71664C5.66789 7.71664 5.68305 7.73806 5.71112 7.76663L6.41639 7.58079C6.41639 7.58079 6.4064 7.70957 6.31961 7.82477C6.48378 7.70056 6.4997 7.4975 6.4997 7.4975ZM7.19599 9.45241C6.0254 9.76769 5.40608 8.4111 5.21858 7.70698C5.13195 7.38196 5.09413 7.1358 5.08405 6.97696C5.08297 6.96046 5.08347 6.94655 5.08463 6.93381C5.02391 6.93748 4.99484 6.96905 5.00075 7.06026C5.01083 7.21903 5.04865 7.46517 5.13528 7.79029C5.3227 8.49431 5.9421 9.8509 7.1127 9.53562C7.36749 9.46698 7.55891 9.34195 7.70261 9.18235C7.57016 9.30197 7.40439 9.39618 7.19599 9.45241ZM7.41597 6.66725V6.75056H7.87512C7.8657 6.72106 7.85621 6.69449 7.84679 6.66725H7.41597Z" fill="#2D4552"/>
<path d="M7.9778 7.35337C8.18429 7.41202 8.2935 7.55679 8.35122 7.68491L8.58146 7.7503C8.58146 7.7503 8.55005 7.30191 8.14447 7.1867C7.76505 7.0789 7.53156 7.39752 7.50316 7.43875C7.61354 7.36012 7.77471 7.29574 7.9778 7.35337ZM9.81052 7.68698C9.43075 7.57869 9.19736 7.89797 9.16937 7.93863C9.27983 7.86008 9.44092 7.79568 9.64392 7.85358C9.85008 7.91231 9.9592 8.05691 10.0171 8.18511L10.2477 8.25075C10.2477 8.25075 10.2158 7.80227 9.81052 7.68698ZM9.58178 8.86923L7.66652 8.3338C7.66652 8.3338 7.68725 8.43892 7.76681 8.57503L9.37938 9.02584C9.51214 8.94903 9.58178 8.86923 9.58178 8.86923ZM8.25392 10.0217C6.7374 9.61516 6.92074 7.68291 7.16614 6.76729C7.26717 6.38995 7.37105 6.10949 7.45719 5.92149C7.40579 5.91091 7.36323 5.93798 7.32116 6.02353C7.2297 6.20903 7.11274 6.51107 6.99955 6.93389C6.75423 7.84949 6.57089 9.78167 8.08734 10.1883C8.80212 10.3798 9.35895 10.0887 9.77404 9.63165C9.38004 9.98851 8.877 10.1886 8.25392 10.0217Z" fill="#2D4552"/>
<path d="M7.41559 8.99961V8.60969L6.33222 8.91689C6.33222 8.91689 6.41227 8.45176 6.97728 8.29148C7.14862 8.24292 7.29482 8.24325 7.41559 8.26658V6.66725H7.95803C7.89897 6.48475 7.84183 6.34424 7.79384 6.2466C7.71446 6.08501 7.63308 6.19213 7.44833 6.34665C7.31822 6.45536 6.98936 6.68726 6.49449 6.82061C5.99961 6.95405 5.59953 6.91866 5.4326 6.88975C5.19595 6.84892 5.07217 6.79695 5.08375 6.97696C5.09383 7.13572 5.13165 7.38188 5.21828 7.70698C5.4057 8.41102 6.0251 9.76761 7.19569 9.45233C7.50147 9.36994 7.7173 9.20709 7.8669 8.99952H7.41559V8.99961ZM5.66742 7.71664L6.49932 7.4975C6.49932 7.4975 6.47507 7.81753 6.16321 7.89974C5.85126 7.98187 5.66742 7.71664 5.66742 7.71664Z" fill="#E2574C"/>
<path d="M10.5473 6.68575C10.331 6.72366 9.81224 6.77088 9.17111 6.59903C8.5298 6.42729 8.1043 6.12691 7.93572 5.98572C7.69674 5.78555 7.59161 5.64644 7.48816 5.85685C7.3967 6.04244 7.27974 6.34448 7.16653 6.7673C6.92123 7.68291 6.73789 9.61509 8.25432 10.0217C9.77044 10.4279 10.5776 8.66282 10.8229 7.74713C10.9361 7.3244 10.9858 7.00428 10.9994 6.79788C11.015 6.56406 10.8544 6.63194 10.5473 6.68575ZM7.50048 7.44327C7.50048 7.44327 7.73946 7.07158 8.14478 7.18679C8.55036 7.30199 8.58177 7.75038 8.58177 7.75038L7.50048 7.44327ZM8.48989 9.11115C7.77695 8.90231 7.667 8.33379 7.667 8.33379L9.58218 8.86925C9.58218 8.86916 9.1956 9.31738 8.48989 9.11115ZM9.16702 7.9428C9.16702 7.9428 9.40567 7.57137 9.81092 7.68691C10.2162 7.80228 10.2481 8.25067 10.2481 8.25067L9.16702 7.9428Z" fill="#2EAD33"/>
<path d="M7.03708 8.71705L6.33231 8.9168C6.33231 8.9168 6.40886 8.48066 6.92805 8.30782L6.52897 6.81013L6.49449 6.82061C5.99961 6.95406 5.59953 6.91866 5.4326 6.88975C5.19596 6.84894 5.07217 6.79695 5.08375 6.97697C5.09383 7.13573 5.13165 7.38187 5.21828 7.707C5.4057 8.41102 6.0251 9.76761 7.19569 9.45232L7.23017 9.4415L7.03708 8.71705ZM5.6675 7.71666L6.4994 7.4975C6.4994 7.4975 6.47516 7.81752 6.16329 7.89974C5.85134 7.98187 5.6675 7.71666 5.6675 7.71666Z" fill="#D65348"/>
<path d="M8.52205 9.11897L8.4898 9.11113C7.77687 8.90231 7.66691 8.33379 7.66691 8.33379L8.65449 8.60985L9.17735 6.6007L9.17102 6.59903C8.52971 6.42729 8.10423 6.12691 7.93563 5.98572C7.69665 5.78555 7.59153 5.64644 7.48807 5.85685C7.3967 6.04244 7.27974 6.34448 7.16653 6.7673C6.92123 7.68291 6.73789 9.61509 8.25432 10.0217L8.2854 10.0287L8.52205 9.11897ZM7.50048 7.44327C7.50048 7.44327 7.73946 7.07158 8.14478 7.18679C8.55036 7.30199 8.58177 7.75038 8.58177 7.75038L7.50048 7.44327Z" fill="#1D8D22"/>
<path d="M7.07287 8.70682L6.88387 8.76046C6.92852 9.01217 7.00722 9.25374 7.13075 9.46715C7.15225 9.46241 7.17358 9.45832 7.19548 9.45233C7.25288 9.43684 7.3061 9.41767 7.35734 9.39676C7.21931 9.19193 7.12801 8.95603 7.07287 8.70682ZM6.99907 6.9339C6.90194 7.29641 6.81505 7.81819 6.83897 8.34154C6.88178 8.32296 6.92701 8.30565 6.97724 8.2914L7.01223 8.28358C6.96957 7.72455 7.06178 7.15489 7.16565 6.7673C7.19199 6.66925 7.21839 6.57805 7.24471 6.493C7.20231 6.51998 7.15667 6.54763 7.10468 6.57612C7.06962 6.68434 7.03422 6.80262 6.99907 6.9339Z" fill="#C04B41"/>
</svg>
