<svg width="16" height="16" viewBox="0 0 16 16" fill="none" xmlns="http://www.w3.org/2000/svg">
<rect x="2.5" y="2.5" width="11" height="11" rx="2.5" stroke="white" stroke-linecap="round"/>
<path d="M8.21484 9.59978C8.21484 8.83072 8.83828 8.20731 9.60731 8.20731C10.3763 8.20731 10.9998 8.83072 10.9998 9.59978C10.9998 10.3688 10.3763 10.9922 9.60731 10.9922C8.83828 10.9922 8.21484 10.3688 8.21484 9.59978Z" fill="#858585"/>
<path d="M8.21484 6.40021C8.21484 5.63118 8.83828 5.00774 9.60731 5.00774C10.3763 5.00774 10.9998 5.63118 10.9998 6.40021V7.65344C10.9998 7.73033 10.9374 7.79269 10.8605 7.79269H8.35409C8.2772 7.79269 8.21484 7.73033 8.21484 7.65344V6.40021Z" fill="#CCCCCC"/>
<path d="M7.78494 9.59978C7.78494 10.3688 7.16151 10.9922 6.39247 10.9922C5.62343 10.9922 5 10.3688 5 9.59978L5 8.34655C5 8.26963 5.06234 8.20731 5.13925 8.20731H7.64569C7.7226 8.20731 7.78494 8.26963 7.78494 8.34655V9.59978Z" fill="#4D4D4D"/>
</svg>
