<svg width="16" height="16" viewBox="0 0 16 16" fill="none" xmlns="http://www.w3.org/2000/svg">
<rect x="2" y="2" width="12" height="12" rx="3" fill="#242424"/>
<path opacity="0.5" d="M8.65309 5.03886L5.37122 6.48779C5.32261 6.50925 5.3006 6.56606 5.32206 6.61466L7.21931 10.912C7.24077 10.9606 7.29757 10.9826 7.34618 10.9611L10.6281 9.51221C10.6767 9.49075 10.6987 9.43395 10.6772 9.38534L8.77996 5.08801C8.7585 5.03941 8.7017 5.0174 8.65309 5.03886Z" fill="#34D399"/>
<path d="M9.59287 5.41977L6.0168 5.70589C5.96384 5.71012 5.92433 5.7565 5.92857 5.80946L6.30322 10.492C6.30746 10.545 6.35383 10.5845 6.40679 10.5802L9.98286 10.2941C10.0358 10.2899 10.0753 10.2435 10.0711 10.1905L9.69645 5.508C9.69221 5.45503 9.64584 5.41553 9.59287 5.41977Z" fill="#34D399"/>
<path d="M9.24276 9.19585L8.77783 7.03811L7.78708 7.78868L9.24276 9.19585ZM8.21154 8.19907L6.75586 6.79189L7.22079 8.94964L8.21154 8.19907Z" fill="#B4FAE2"/>
</svg>
