<svg width="16" height="16" viewBox="0 0 16 16" fill="none" xmlns="http://www.w3.org/2000/svg">
<rect x="2" y="2" width="12" height="12" rx="3" fill="#2C8EBB"/>
<path d="M10.8035 9.38331C10.7718 9.13323 10.5604 8.96064 10.2892 8.96417C9.88416 8.96945 9.54427 9.17902 9.31885 9.31815C9.23079 9.37274 9.15506 9.41325 9.0899 9.44319C9.10399 9.2389 9.09166 8.97121 8.986 8.67711C8.85744 8.32488 8.68485 8.10827 8.56157 7.98323C8.70422 7.77542 8.8997 7.47251 8.99128 7.00406C9.07053 6.60429 9.04588 5.98262 8.86448 5.63392C8.8275 5.56348 8.76586 5.5124 8.68837 5.49127C8.65667 5.48246 8.59679 5.46485 8.4788 5.49831C8.30093 5.13024 8.23929 5.0915 8.19174 5.0598C8.09312 4.9964 7.97689 4.98231 7.8677 5.02282C7.72153 5.07565 7.59649 5.21654 7.47849 5.46661C7.46088 5.5036 7.44503 5.53882 7.43094 5.57404C7.20728 5.58989 6.85506 5.6709 6.55744 5.99318C6.52045 6.03369 6.44825 6.06363 6.37252 6.09181H6.37428C6.2193 6.1464 6.14886 6.2732 6.06257 6.50214C5.94281 6.82266 6.06609 7.1379 6.1876 7.34219C6.02206 7.49012 5.80192 7.72611 5.68569 8.0026C5.54128 8.34426 5.52543 8.67887 5.53071 8.86026C5.40744 8.99058 5.21724 9.23537 5.1961 9.51011C5.16793 9.89403 5.30705 10.1547 5.36869 10.2498C5.3863 10.2779 5.40567 10.3008 5.42681 10.3237C5.41976 10.3713 5.418 10.4224 5.42857 10.4752C5.45146 10.5985 5.52895 10.6989 5.64695 10.7623C5.87941 10.8855 6.20345 10.9384 6.45353 10.8133C6.54335 10.9084 6.70713 11 7.00476 11H7.02237C7.0981 11 8.05966 10.9489 8.33967 10.8802C8.46471 10.8503 8.55101 10.7975 8.60736 10.7499C8.78699 10.6936 9.28362 10.5245 9.75208 10.2216C10.0832 10.0067 10.1976 9.96095 10.4442 9.90107C10.6837 9.84296 10.8334 9.62458 10.8035 9.38331ZM10.3843 9.64219C10.1025 9.70911 9.95989 9.77075 9.61119 9.99793C9.06701 10.3502 8.47176 10.5139 8.47176 10.5139C8.47176 10.5139 8.42244 10.5879 8.2798 10.6214C8.03324 10.6812 7.10514 10.7323 7.02061 10.7341C6.79342 10.7358 6.6543 10.676 6.61555 10.5826C6.49756 10.3008 6.78462 10.1776 6.78462 10.1776C6.78462 10.1776 6.72122 10.1388 6.68424 10.1036C6.65077 10.0701 6.61555 10.0032 6.60499 10.0279C6.56096 10.1353 6.53806 10.3977 6.42007 10.5157C6.25805 10.6795 5.95162 10.6249 5.77022 10.5298C5.57122 10.4241 5.78431 10.1758 5.78431 10.1758C5.78431 10.1758 5.67688 10.2392 5.59059 10.1089C5.5131 9.98913 5.4409 9.78484 5.46027 9.533C5.4814 9.24594 5.80192 8.96769 5.80192 8.96769C5.80192 8.96769 5.74557 8.54326 5.93048 8.10827C6.09779 7.71202 6.54863 7.39326 6.54863 7.39326C6.54863 7.39326 6.16999 6.97412 6.31088 6.59724C6.40246 6.35069 6.43944 6.35245 6.46938 6.34188C6.57505 6.30138 6.67719 6.25735 6.75292 6.17458C7.13156 5.766 7.6141 5.84349 7.6141 5.84349C7.6141 5.84349 7.84304 5.14785 8.05437 5.28346C8.11954 5.32573 8.35376 5.84701 8.35376 5.84701C8.35376 5.84701 8.60384 5.70084 8.63202 5.75544C8.78347 6.04954 8.80108 6.61133 8.73416 6.95299C8.62145 7.51654 8.33967 7.81945 8.22696 8.00965C8.20055 8.05367 8.52987 8.1928 8.73768 8.76868C8.92964 9.29525 8.75882 9.73729 8.78875 9.7866C8.79404 9.79541 8.7958 9.79893 8.7958 9.79893C8.7958 9.79893 9.01594 9.81654 9.45797 9.54357C9.69396 9.3974 9.97398 9.23361 10.2927 9.23009C10.6009 9.22481 10.6168 9.58583 10.3843 9.64219Z" fill="white"/>
</svg>
