<svg width="16" height="16" viewBox="0 0 16 16" fill="none" xmlns="http://www.w3.org/2000/svg">
<rect x="2.5" y="2.5" width="11" height="11" rx="2.5" stroke="#060606"/>
<path fill-rule="evenodd" clip-rule="evenodd" d="M7.99494 9.46626C9.32236 11.2758 10.6214 8.96117 10.6195 7.56925C10.6173 5.92352 8.94923 5.00372 7.99385 5.00372C6.4604 5.00372 5 6.27107 5 8.00507C5 9.93242 6.674 11 7.99385 11C7.69518 10.957 6.69987 10.7437 6.68649 8.45125C6.67749 6.90073 7.19229 6.28127 7.99167 6.55378C8.00958 6.56042 8.87345 6.9012 8.87345 8.01445C8.87345 9.12295 7.99494 9.46626 7.99494 9.46626Z" fill="url(#paint0_linear_102_461)"/>
<path fill-rule="evenodd" clip-rule="evenodd" d="M7.9936 6.55254C7.11648 6.25022 6.04199 6.97314 6.04199 8.42113C6.04199 10.7854 7.79403 11 8.00639 11C9.53984 11 11.0002 9.73265 11.0002 7.99865C11.0002 6.0713 9.32624 5.00372 8.00639 5.00372C8.37194 4.95309 9.97668 5.39934 9.97668 7.5926C9.97668 9.02289 8.77844 9.80154 7.99912 9.46884C7.98121 9.4622 7.11734 9.12142 7.11734 8.00818C7.11734 6.89968 7.9936 6.55254 7.9936 6.55254Z" fill="url(#paint1_linear_102_461)"/>
<defs>
<linearGradient id="paint0_linear_102_461" x1="5.88735" y1="5.88737" x2="10.1137" y2="10.1151" gradientUnits="userSpaceOnUse">
<stop/>
<stop offset="1" stop-color="white"/>
</linearGradient>
<linearGradient id="paint1_linear_102_461" x1="10.1146" y1="10.1145" x2="5.88819" y2="5.88715" gradientUnits="userSpaceOnUse">
<stop/>
<stop offset="1" stop-color="white"/>
</linearGradient>
</defs>
</svg>
