<svg width="16" height="16" viewBox="0 0 16 16" fill="none" xmlns="http://www.w3.org/2000/svg">
<rect x="2.5" y="2.5" width="11" height="11" rx="2.5" fill="black"/>
<rect x="2.5" y="2.5" width="11" height="11" rx="2.5" stroke="white"/>
<path d="M11 6.44655V9.55596C11 10.0802 10.7354 10.3422 10.201 10.3422H5.79898C5.26718 10.3422 5 10.0802 5 9.55596V6.44655C5 5.92238 5.26718 5.65775 5.79898 5.65775H10.201C10.7354 5.65775 11 5.92238 11 6.44655ZM8.60561 8.06487L7.38932 9.14376L6.90331 8.70609C6.79135 8.60176 6.66158 8.55088 6.5369 8.55088C6.42494 8.55088 6.3028 8.60176 6.19084 8.70101L5.40967 9.38295V9.53817C5.40967 9.78752 5.55725 9.9351 5.80407 9.9351H10.1985C10.4402 9.9351 10.5903 9.78752 10.5903 9.54325V9.15139L9.41986 8.06742C9.30026 7.95546 9.15523 7.90202 9.01529 7.90202C8.87023 7.90202 8.73029 7.95291 8.60561 8.06487ZM6.2799 7.43637C6.2799 7.78243 6.56234 8.06487 6.9084 8.06487C7.25191 8.06487 7.53436 7.78243 7.53436 7.43637C7.53436 7.09286 7.25191 6.80787 6.9084 6.80787C6.56234 6.80787 6.2799 7.09286 6.2799 7.43637Z" fill="white"/>
</svg>
