<svg width="16" height="16" viewBox="0 0 16 16" fill="none" xmlns="http://www.w3.org/2000/svg">
<rect x="2" y="2" width="12" height="12" rx="3" fill="#00005B"/>
<path d="M7.20929 8.98276H5.81883L5.53475 9.86488C5.52728 9.89852 5.49738 9.92095 5.46374 9.91721H4.76103C4.71992 9.91721 4.7087 9.89478 4.71992 9.84993L5.92348 6.39994C5.9347 6.36257 5.94591 6.32893 5.96086 6.28407C5.97581 6.20558 5.98329 6.12335 5.98329 6.04112C5.97955 6.02243 5.9945 6.00374 6.01319 6H6.02441H6.98128C7.00744 6 7.02613 6.01121 7.02987 6.0299L8.39417 9.84245C8.40538 9.88357 8.39417 9.90226 8.35679 9.90226H7.57559C7.54942 9.90599 7.52326 9.88731 7.51578 9.86114L7.20929 8.96407V8.98276ZM6.03562 8.23894H6.98502C6.96259 8.16044 6.93269 8.067 6.89905 7.96982C6.86541 7.8689 6.83177 7.7605 6.79813 7.64837C6.76075 7.5325 6.72711 7.42036 6.68973 7.30449C6.65235 7.18862 6.61871 7.08022 6.58881 6.97183C6.55891 6.86717 6.53275 6.76999 6.50658 6.68028H6.49911C6.46546 6.841 6.42435 7.00173 6.37202 7.16245C6.31595 7.34187 6.25989 7.52876 6.20008 7.71565C6.15149 7.90627 6.09169 8.08195 6.03562 8.23894Z" fill="#9999FF"/>
<path d="M10.596 8.64635H9.41115C9.4261 8.76222 9.46348 8.87809 9.52702 8.97901C9.5943 9.07993 9.68774 9.15842 9.79988 9.20328C9.94939 9.26682 10.1139 9.30046 10.2783 9.29672C10.4091 9.29299 10.54 9.28177 10.667 9.25561C10.7829 9.24066 10.8951 9.21075 10.9997 9.16964C11.0184 9.15469 11.0296 9.16216 11.0296 9.19954V9.77142C11.0296 9.78637 11.0259 9.80133 11.0221 9.81628C11.0147 9.82749 11.0072 9.83497 10.996 9.84244C10.8764 9.89477 10.753 9.93215 10.6222 9.95458C10.4465 9.98822 10.2708 10.0032 10.0914 9.99943C9.80735 9.99943 9.56814 9.95457 9.37377 9.86861C9.19062 9.79011 9.02989 9.66676 8.90281 9.51352C8.7832 9.36774 8.69723 9.20328 8.6449 9.02386C8.59257 8.84819 8.56641 8.66504 8.56641 8.47815C8.56641 8.27631 8.59631 8.0782 8.65985 7.88384C8.71966 7.69695 8.8131 7.52501 8.94019 7.37176C9.06353 7.22225 9.21678 7.10264 9.39246 7.01667C9.56814 6.9307 9.77745 6.9008 10.0167 6.9008C10.2148 6.89706 10.4129 6.93444 10.596 7.01667C10.7493 7.08395 10.8838 7.18487 10.9885 7.31569C11.0857 7.44278 11.1642 7.58481 11.2128 7.7418C11.2614 7.89131 11.2838 8.04456 11.2838 8.19781C11.2838 8.28752 11.28 8.36601 11.2763 8.43703C11.2688 8.50805 11.2651 8.56038 11.2614 8.59402C11.2576 8.62018 11.2352 8.64261 11.209 8.64261C11.1866 8.64261 11.1455 8.64635 11.0857 8.65009C11.0259 8.65756 10.9549 8.6613 10.8689 8.6613C10.7829 8.6613 10.6932 8.64635 10.596 8.64635ZM9.41115 8.10063H10.1998C10.297 8.10063 10.368 8.10063 10.4129 8.09689C10.4428 8.09315 10.4727 8.08568 10.4988 8.06699V8.02961C10.4988 7.98102 10.4914 7.93617 10.4764 7.89131C10.4091 7.682 10.211 7.53996 9.99051 7.54744C9.78493 7.53622 9.59056 7.64462 9.49338 7.83151C9.44853 7.91748 9.42236 8.00718 9.41115 8.10063Z" fill="#9999FF"/>
</svg>
