<svg width="16" height="16" viewBox="0 0 16 16" fill="none" xmlns="http://www.w3.org/2000/svg">
<rect x="2" y="2" width="12" height="12" rx="3" fill="black"/>
<path d="M8.3087 6.80542L8.30868 8.44716L8.91173 7.84423L9.21611 8.14864L8.10141 9.26326L6.97266 8.1345L7.27706 7.8301L7.87819 8.43123L7.87821 6.80542H8.3087Z" fill="#F9AC00"/>
<path d="M4.43049 9.1797V7.90825L5.20894 8.68676L5.9933 7.90246V9.16685H6.42379V6.86322L5.20897 8.07796L4 6.86891V9.1797H4.43049Z" fill="#F9AC00"/>
<path d="M11.6954 6.73672L11.9998 7.04113L11.088 7.95288L11.9718 8.83665L11.6674 9.14105L10.7836 8.25731L9.89983 9.14105L9.59544 8.83665L10.4791 7.95288L9.56738 7.04113L9.87178 6.73672L10.7836 7.64845L11.6954 6.73672Z" fill="#F9AC00"/>
</svg>
