<svg width="16" height="16" viewBox="0 0 16 16" fill="none" xmlns="http://www.w3.org/2000/svg">
<path d="M3 13.5C2.17157 13.5 1.5 12.8284 1.5 12V4C1.5 3.17157 2.17157 2.5 3 2.5H5.67157C6.0694 2.5 6.45093 2.65803 6.73223 2.93934L7.56066 3.76777C8.0295 4.23661 8.66539 4.5 9.32843 4.5H13C13.8284 4.5 14.5 5.17157 14.5 6V12C14.5 12.8284 13.8284 13.5 13 13.5H3Z" fill="white" stroke="white"/>
<path d="M7.9792 6.08962C7.92616 6.0923 7.87419 6.10545 7.82634 6.12831L5.74044 7.12497C5.68646 7.15075 5.63902 7.18827 5.60166 7.23473C5.56429 7.28119 5.53796 7.3354 5.52463 7.39334L5.01002 9.6321C4.99814 9.68368 4.99681 9.7371 5.00611 9.7892C5.01541 9.8413 5.03516 9.89102 5.06418 9.93542C5.07121 9.94627 5.07878 9.95678 5.08685 9.9669L6.53063 11.762C6.568 11.8085 6.61544 11.846 6.66943 11.8717C6.72342 11.8975 6.78257 11.9109 6.84248 11.9109L9.1578 11.9103C9.2177 11.9104 9.27683 11.897 9.33082 11.8713C9.38481 11.8456 9.43226 11.8081 9.46966 11.7617L10.9129 9.96636C10.9503 9.91989 10.9766 9.86566 10.99 9.80769C11.0033 9.74973 11.0033 9.68953 10.99 9.63156L10.4746 7.39281C10.4613 7.33487 10.4349 7.28066 10.3976 7.2342C10.3602 7.18773 10.3128 7.15022 10.2588 7.12444L8.17261 6.12831C8.11242 6.09955 8.04592 6.08625 7.9792 6.08962Z" fill="#326CE5"/>
<path d="M7.99997 6.8515C7.93102 6.85151 7.87511 6.91361 7.87512 6.99022C7.87512 6.9914 7.87536 6.99252 7.87539 6.99369C7.87528 7.0041 7.87478 7.01664 7.87512 7.0257C7.87676 7.06989 7.8864 7.10371 7.89219 7.14442C7.9027 7.23155 7.9115 7.30378 7.90607 7.37091C7.90078 7.39622 7.88214 7.41937 7.86552 7.43547L7.86258 7.48829C7.78766 7.4945 7.71223 7.50586 7.63689 7.52297C7.31271 7.59657 7.0336 7.76356 6.8211 7.98902C6.80731 7.97961 6.78319 7.96231 6.77602 7.95701C6.75373 7.96002 6.7312 7.9669 6.70185 7.9498C6.64598 7.9122 6.59509 7.86028 6.53352 7.79774C6.50531 7.76783 6.48487 7.73934 6.45135 7.71051C6.44374 7.70396 6.43212 7.6951 6.42361 7.68837C6.3974 7.66747 6.36649 7.65658 6.33664 7.65555C6.29826 7.65424 6.26131 7.66925 6.23714 7.69957C6.19415 7.75348 6.20791 7.83589 6.26781 7.88364C6.26842 7.88413 6.26907 7.88451 6.26968 7.88498C6.27791 7.89165 6.28799 7.9002 6.29556 7.90579C6.33113 7.93205 6.36362 7.9455 6.39907 7.96634C6.47374 8.01246 6.53564 8.05069 6.58474 8.0968C6.60391 8.11723 6.60727 8.15325 6.60982 8.16883L6.64983 8.20457C6.43562 8.52695 6.33648 8.92515 6.39507 9.33089L6.34278 9.34609C6.329 9.36389 6.30952 9.39189 6.28916 9.40025C6.22492 9.42048 6.15262 9.42791 6.06533 9.43706C6.02436 9.44047 5.989 9.43844 5.94555 9.44667C5.93599 9.44848 5.92267 9.45195 5.91221 9.4544C5.91184 9.45448 5.9115 9.45459 5.91114 9.45467C5.91057 9.4548 5.90982 9.45508 5.90927 9.4552C5.83568 9.47298 5.78841 9.54062 5.80363 9.60726C5.81885 9.67392 5.89073 9.71446 5.96476 9.6985C5.9653 9.69838 5.96607 9.69836 5.96663 9.69823C5.96746 9.69804 5.9682 9.69763 5.96903 9.69743C5.97935 9.69517 5.99228 9.69265 6.00131 9.69023C6.04402 9.67879 6.07495 9.66199 6.11335 9.64728C6.19596 9.61765 6.26438 9.5929 6.33104 9.58325C6.35888 9.58107 6.38821 9.60043 6.4028 9.6086L6.45722 9.59926C6.58246 9.98753 6.84491 10.3014 7.17724 10.4983L7.15457 10.5527C7.16274 10.5738 7.17175 10.6024 7.16567 10.6233C7.14143 10.6861 7.09992 10.7525 7.05266 10.8264C7.02977 10.8606 7.00635 10.8871 6.9857 10.9262C6.98076 10.9355 6.97446 10.9499 6.96969 10.9598C6.9376 11.0285 6.96114 11.1075 7.02278 11.1372C7.08481 11.1671 7.1618 11.1356 7.19512 11.0668C7.19516 11.0667 7.19534 11.0666 7.19538 11.0665C7.19542 11.0664 7.19535 11.0663 7.19538 11.0662C7.20013 11.0565 7.20685 11.0437 7.21086 11.0345C7.22854 10.994 7.23443 10.9592 7.24687 10.9201C7.2799 10.8371 7.29805 10.75 7.34353 10.6958C7.35598 10.6809 7.37628 10.6752 7.39733 10.6696L7.42561 10.6183C7.71533 10.7295 8.03963 10.7594 8.36358 10.6858C8.43748 10.669 8.50883 10.6473 8.5778 10.6213C8.58575 10.6354 8.60052 10.6625 8.60448 10.6693C8.62586 10.6762 8.64921 10.6798 8.66823 10.708C8.70226 10.7661 8.72552 10.8349 8.75387 10.9179C8.76631 10.9571 8.77246 10.9918 8.79015 11.0324C8.79418 11.0416 8.80087 11.0546 8.80562 11.0644C8.83887 11.1334 8.91611 11.165 8.97822 11.1351C9.03986 11.1054 9.06342 11.0263 9.03131 10.9577C9.02654 10.9478 9.01998 10.9334 9.01504 10.9241C8.99438 10.885 8.97097 10.8587 8.94808 10.8245C8.90081 10.7506 8.8616 10.6892 8.83737 10.6263C8.82723 10.5939 8.83908 10.5738 8.84697 10.5527C8.84224 10.5473 8.83213 10.5167 8.82616 10.5023C9.17154 10.2984 9.42628 9.97283 9.54592 9.59686C9.56207 9.5994 9.59015 9.60437 9.59927 9.6062C9.61805 9.59381 9.63531 9.57765 9.66917 9.58032C9.73582 9.58996 9.80424 9.61472 9.88685 9.64434C9.92525 9.65905 9.95618 9.67613 9.9989 9.68756C10.0079 9.68998 10.0209 9.69223 10.0312 9.6945C10.032 9.6947 10.0327 9.69511 10.0336 9.6953C10.0341 9.69542 10.0349 9.69544 10.0354 9.69556C10.1095 9.7115 10.1814 9.67099 10.1966 9.60433C10.2118 9.53768 10.1645 9.47003 10.0909 9.45227C10.0802 9.44983 10.065 9.4457 10.0547 9.44373C10.0112 9.4355 9.97585 9.43753 9.93487 9.43413C9.84759 9.42498 9.77529 9.41754 9.71105 9.39731C9.68486 9.38715 9.66622 9.35598 9.65716 9.34316L9.60674 9.32849C9.63288 9.13936 9.62583 8.94253 9.5806 8.74559C9.53494 8.54681 9.45425 8.36501 9.34664 8.20484C9.35957 8.19308 9.38399 8.17145 9.39092 8.16509C9.39295 8.14269 9.39121 8.1192 9.4144 8.0944C9.46349 8.04829 9.5254 8.01006 9.60007 7.96394C9.63551 7.94309 9.66828 7.92965 9.70385 7.90339C9.71189 7.89745 9.72287 7.88804 9.73132 7.88124C9.79121 7.83347 9.805 7.75107 9.762 7.69717C9.719 7.64327 9.63568 7.63819 9.57579 7.68597C9.56727 7.69272 9.5557 7.70152 9.54805 7.70811C9.51453 7.73695 9.49383 7.76543 9.46562 7.79534C9.40405 7.85788 9.35315 7.91006 9.29728 7.94767C9.27307 7.96176 9.23761 7.95689 9.22152 7.95594L9.17403 7.98982C8.90326 7.70588 8.53459 7.52435 8.13762 7.48909C8.13651 7.47245 8.13506 7.44238 8.13469 7.43333C8.11844 7.41778 8.09881 7.40451 8.09387 7.37091C8.08844 7.30378 8.09751 7.23155 8.10801 7.14442C8.11381 7.10371 8.12344 7.06989 8.12509 7.0257C8.12546 7.01566 8.12486 7.00108 8.12482 6.99022C8.12481 6.91361 8.06892 6.8515 7.99997 6.8515ZM7.84364 7.81989L7.80656 8.47481L7.80389 8.47615C7.8014 8.53474 7.75318 8.58152 7.69398 8.58152C7.66973 8.58152 7.64735 8.57373 7.62916 8.56045L7.62809 8.56098L7.09108 8.1803C7.25612 8.018 7.46723 7.89807 7.71052 7.84283C7.75496 7.83274 7.79939 7.82525 7.84364 7.81989ZM8.15656 7.81989C8.44061 7.85482 8.7033 7.98344 8.9046 8.18056L8.37105 8.55885L8.36918 8.55805C8.32183 8.59263 8.2551 8.58405 8.21819 8.53777C8.20307 8.51881 8.19513 8.49652 8.19418 8.47401L8.19365 8.47375L8.15656 7.81989ZM6.89633 8.42493L7.38666 8.8635L7.38613 8.86617C7.43038 8.90464 7.43691 8.97141 7.4 9.0177C7.38488 9.03666 7.36464 9.04937 7.34291 9.05531L7.34238 9.05744L6.71386 9.23885C6.68187 8.94634 6.75081 8.66199 6.89633 8.42493ZM9.10014 8.42519C9.17299 8.54328 9.22816 8.67517 9.261 8.81815C9.29345 8.95942 9.3016 9.10043 9.28821 9.23672L8.6565 9.05478L8.65596 9.05211C8.5994 9.03665 8.56463 8.97911 8.5778 8.92139C8.58319 8.89775 8.59575 8.87774 8.61275 8.86297L8.61248 8.86163L9.10014 8.42519ZM7.8994 8.89738H8.10028L8.22513 9.05344L8.18031 9.24819L7.99997 9.33489L7.8191 9.24792L7.77428 9.05318L7.8994 8.89738ZM8.54339 9.43146C8.55192 9.43103 8.56042 9.4318 8.56873 9.43333L8.5698 9.43199L9.21992 9.5419C9.12477 9.80921 8.94271 10.0408 8.69945 10.1958L8.44708 9.58619L8.44788 9.58512C8.4247 9.53125 8.4479 9.46809 8.50123 9.4424C8.51489 9.43582 8.52916 9.43218 8.54339 9.43146ZM7.45148 9.43413C7.5011 9.43482 7.5456 9.46926 7.55713 9.51976C7.56252 9.5434 7.5599 9.56683 7.55099 9.58752L7.55286 9.58992L7.30316 10.1934C7.0697 10.0436 6.88376 9.81925 6.78429 9.54404L7.42881 9.43466L7.42988 9.43599C7.43709 9.43467 7.4444 9.43403 7.45148 9.43413ZM7.99597 9.6985C8.01325 9.69786 8.03079 9.70141 8.04745 9.70944C8.0693 9.71996 8.08618 9.73653 8.09681 9.75639H8.09921L8.41693 10.3305C8.3757 10.3443 8.33331 10.3561 8.28995 10.366C8.04696 10.4211 7.80474 10.4044 7.5854 10.3297L7.90233 9.75666H7.90286C7.92188 9.7211 7.95795 9.6999 7.99597 9.6985Z" fill="white"/>
</svg>
