<svg width="16" height="16" viewBox="0 0 16 16" fill="none" xmlns="http://www.w3.org/2000/svg">
<path d="M3 13.5C2.17157 13.5 1.5 12.8284 1.5 12V4C1.5 3.17157 2.17157 2.5 3 2.5H5.67157C6.0694 2.5 6.45093 2.65803 6.73223 2.93934L7.56066 3.76777C8.0295 4.23661 8.66539 4.5 9.32843 4.5H13C13.8284 4.5 14.5 5.17157 14.5 6V12C14.5 12.8284 13.8284 13.5 13 13.5H3Z" fill="white" stroke="white"/>
<path d="M10.3594 10.2082L10.6483 9.47766H11.4824L11.0865 8.36949L11.5816 7.11749L12.9996 10.8825H11.9539L11.7116 10.2082H10.3594Z" fill="#3D3D3D"/>
<path d="M9.46713 10.8825L10.9852 7.11749L9.97875 7.1175L8.94033 9.55054L8.20191 7.1175H7.42834L6.63547 9.55054L6.07632 8.44185L5.57031 10.0008L6.08406 10.8825H7.07449L7.79097 8.7006L8.47409 10.8825H9.46713Z" fill="#5A0FC8"/>
<path d="M3.95531 9.59005H4.5752C4.76298 9.59005 4.93018 9.56909 5.07682 9.52717L5.23714 9.03328L5.68518 7.65292C5.65104 7.59881 5.61207 7.54765 5.56826 7.49944C5.33821 7.24481 5.00163 7.11749 4.55851 7.11749H3V10.8825H3.95531V9.59005ZM4.77583 7.98367C4.86569 8.07411 4.91061 8.19513 4.91061 8.34674C4.91061 8.49952 4.8711 8.62069 4.79207 8.71025C4.70545 8.80976 4.54593 8.85951 4.31354 8.85951H3.95531V7.84801H4.31618C4.53276 7.84801 4.68598 7.89323 4.77583 7.98367Z" fill="#3D3D3D"/>
</svg>
