<svg width="16" height="16" viewBox="0 0 16 16" fill="none" xmlns="http://www.w3.org/2000/svg">
<path d="M3 13.5C2.17157 13.5 1.5 12.8284 1.5 12V4C1.5 3.17157 2.17157 2.5 3 2.5H5.67157C6.0694 2.5 6.45093 2.65803 6.73223 2.93934L7.56066 3.76777C8.0295 4.23661 8.66539 4.5 9.32843 4.5H13C13.8284 4.5 14.5 5.17157 14.5 6V12C14.5 12.8284 13.8284 13.5 13 13.5H3Z" fill="#2C8EBB" stroke="#2C8EBB"/>
<path d="M10.8035 10.3833C10.7718 10.1332 10.5604 9.96064 10.2892 9.96417C9.88416 9.96945 9.54427 10.179 9.31885 10.3181C9.23079 10.3727 9.15506 10.4132 9.0899 10.4432C9.10399 10.2389 9.09166 9.97121 8.986 9.67711C8.85744 9.32488 8.68485 9.10827 8.56157 8.98323C8.70422 8.77542 8.8997 8.47251 8.99128 8.00406C9.07053 7.60429 9.04588 6.98262 8.86448 6.63392C8.8275 6.56348 8.76586 6.5124 8.68837 6.49127C8.65667 6.48246 8.59679 6.46485 8.4788 6.49831C8.30093 6.13024 8.23929 6.0915 8.19174 6.0598C8.09312 5.9964 7.97689 5.98231 7.8677 6.02282C7.72153 6.07565 7.59649 6.21654 7.47849 6.46661C7.46088 6.5036 7.44503 6.53882 7.43094 6.57404C7.20728 6.58989 6.85506 6.6709 6.55744 6.99318C6.52045 7.03369 6.44825 7.06363 6.37252 7.09181H6.37428C6.2193 7.1464 6.14886 7.2732 6.06257 7.50214C5.94281 7.82266 6.06609 8.1379 6.1876 8.34219C6.02206 8.49012 5.80192 8.72611 5.68569 9.0026C5.54128 9.34426 5.52543 9.67887 5.53071 9.86026C5.40744 9.99058 5.21724 10.2354 5.1961 10.5101C5.16793 10.894 5.30705 11.1547 5.36869 11.2498C5.3863 11.2779 5.40567 11.3008 5.42681 11.3237C5.41976 11.3713 5.418 11.4224 5.42857 11.4752C5.45146 11.5985 5.52895 11.6989 5.64695 11.7623C5.87941 11.8855 6.20345 11.9384 6.45353 11.8133C6.54335 11.9084 6.70713 12 7.00476 12H7.02237C7.0981 12 8.05966 11.9489 8.33967 11.8802C8.46471 11.8503 8.55101 11.7975 8.60736 11.7499C8.78699 11.6936 9.28362 11.5245 9.75208 11.2216C10.0832 11.0067 10.1976 10.9609 10.4442 10.9011C10.6837 10.843 10.8334 10.6246 10.8035 10.3833ZM10.3843 10.6422C10.1025 10.7091 9.95989 10.7708 9.61119 10.9979C9.06701 11.3502 8.47176 11.5139 8.47176 11.5139C8.47176 11.5139 8.42244 11.5879 8.2798 11.6214C8.03324 11.6812 7.10514 11.7323 7.02061 11.7341C6.79342 11.7358 6.6543 11.676 6.61555 11.5826C6.49756 11.3008 6.78462 11.1776 6.78462 11.1776C6.78462 11.1776 6.72122 11.1388 6.68424 11.1036C6.65077 11.0701 6.61555 11.0032 6.60499 11.0279C6.56096 11.1353 6.53806 11.3977 6.42007 11.5157C6.25805 11.6795 5.95162 11.6249 5.77022 11.5298C5.57122 11.4241 5.78431 11.1758 5.78431 11.1758C5.78431 11.1758 5.67688 11.2392 5.59059 11.1089C5.5131 10.9891 5.4409 10.7848 5.46027 10.533C5.4814 10.2459 5.80192 9.96769 5.80192 9.96769C5.80192 9.96769 5.74557 9.54326 5.93048 9.10827C6.09779 8.71202 6.54863 8.39326 6.54863 8.39326C6.54863 8.39326 6.16999 7.97412 6.31088 7.59724C6.40246 7.35069 6.43944 7.35245 6.46938 7.34188C6.57505 7.30138 6.67719 7.25735 6.75292 7.17458C7.13156 6.766 7.6141 6.84349 7.6141 6.84349C7.6141 6.84349 7.84304 6.14785 8.05437 6.28346C8.11954 6.32573 8.35376 6.84701 8.35376 6.84701C8.35376 6.84701 8.60384 6.70084 8.63202 6.75544C8.78347 7.04954 8.80108 7.61133 8.73416 7.95299C8.62145 8.51654 8.33967 8.81945 8.22696 9.00965C8.20055 9.05367 8.52987 9.1928 8.73768 9.76868C8.92964 10.2953 8.75882 10.7373 8.78875 10.7866C8.79404 10.7954 8.7958 10.7989 8.7958 10.7989C8.7958 10.7989 9.01594 10.8165 9.45797 10.5436C9.69396 10.3974 9.97398 10.2336 10.2927 10.2301C10.6009 10.2248 10.6168 10.5858 10.3843 10.6422Z" fill="white"/>
</svg>
